<svg width="10" height="8" viewBox="0 0 10 8" fill="none" xmlns="http://www.w3.org/2000/svg">
<path fill-rule="evenodd" clip-rule="evenodd" d="M5.64592 7.85301C5.59935 7.80657 5.56241 7.75139 5.5372 7.69065C5.512 7.6299 5.49902 7.56478 5.49902 7.49901C5.49902 7.43325 5.512 7.36813 5.5372 7.30738C5.56241 7.24664 5.59935 7.19146 5.64592 7.14501L8.29292 4.49901L5.64592 1.85301C5.55203 1.75913 5.49928 1.63179 5.49928 1.49901C5.49928 1.36624 5.55203 1.2389 5.64592 1.14501C5.7398 1.05113 5.86714 0.998384 5.99992 0.998384C6.13269 0.998383 6.26003 1.05113 6.35392 1.14501L9.35392 4.14501C9.40048 4.19146 9.43742 4.24664 9.46263 4.30738C9.48784 4.36813 9.50081 4.43325 9.50081 4.49901C9.50081 4.56478 9.48784 4.6299 9.46263 4.69065C9.43742 4.75139 9.40048 4.80657 9.35392 4.85301L6.35392 7.85301C6.30747 7.89958 6.2523 7.93652 6.19155 7.96173C6.13081 7.98693 6.06568 7.99991 5.99992 7.99991C5.93415 7.99991 5.86903 7.98693 5.80828 7.96173C5.74754 7.93652 5.69236 7.89958 5.64592 7.85301Z" fill="#666775"/>
<path fill-rule="evenodd" clip-rule="evenodd" d="M-2.18557e-08 4.49893C-2.76522e-08 4.36632 0.0790177 4.23915 0.21967 4.14538C0.360322 4.05161 0.551088 3.99893 0.75 3.99893L8.25 3.99893C8.44891 3.99893 8.63968 4.05161 8.78033 4.14538C8.92098 4.23915 9 4.36632 9 4.49893C9 4.63154 8.92098 4.75872 8.78033 4.85248C8.63968 4.94625 8.44891 4.99893 8.25 4.99893L0.75 4.99893C0.551088 4.99893 0.360322 4.94625 0.21967 4.85249C0.0790178 4.75872 -1.60592e-08 4.63154 -2.18557e-08 4.49893Z" fill="#666775"/>
</svg>
