<svg width="100" height="162" viewBox="0 0 100 162" fill="none" xmlns="http://www.w3.org/2000/svg">
<path d="M0 18C0 12.4772 4.47715 8 10 8H50C77.6142 8 100 30.3858 100 58V152C100 157.523 95.5229 162 90 162H10C4.47716 162 0 157.523 0 152V18Z" fill="url(#paint0_linear_1_1050)"/>
<mask id="mask0_1_1050" style="mask-type:alpha" maskUnits="userSpaceOnUse" x="0" y="8" width="100" height="154">
<path d="M0 18C0 12.4772 4.47715 8 10 8H50C77.6142 8 100 30.3858 100 58V162H0V18Z" fill="url(#paint1_linear_1_1050)"/>
</mask>
<g mask="url(#mask0_1_1050)">
<ellipse cx="30" cy="16" rx="37" ry="35" fill="url(#paint2_linear_1_1050)"/>
</g>
<g clip-path="url(#clip0_1_1050)">
<path d="M42.9709 7.10886H40.4972C38.8442 7.10886 37.5042 8.44886 37.5042 10.1019V12.9889L38.2285 13.4249H43.2584V7.63527L42.9709 7.10886Z" fill="#EFC984"/>
<path d="M48.4177 27.2179C48.4177 25.5819 47.3395 24.1417 45.7697 23.6808L41.3917 22.3955L41.3945 21.4577H39.4365L35.1566 22.7139C33.6224 23.1642 32.5686 24.5717 32.5686 26.1705V33.0074H48.4181L48.4177 27.2179Z" fill="#D050CA"/>
<path d="M50.4125 22.7139L46.1341 21.4579H41.0698L41.0662 22.6906L45.3445 23.9467C46.8785 24.397 47.9322 25.8045 47.9322 27.4032V33.0075H53.0001V26.1705C53.0001 24.5718 51.9465 23.1643 50.4125 22.7139Z" fill="#E86101"/>
<path d="M45.2052 33.0075L43.6333 25.9987H41.9305L40.3586 33.0075H45.2052Z" fill="#DB58D5"/>
<path d="M45.134 22.3194V18.5411H40.4329V22.3194C40.4329 23.6176 42.7834 23.733 42.7834 23.733C42.7834 23.733 45.134 23.6175 45.134 22.3194Z" fill="#FFDDCE"/>
<path d="M43.1559 17.0118C43.2292 16.6901 43.2584 16.3599 43.2584 16.03V11.0232C42.3523 11.0841 41.4372 10.9704 40.5643 10.682L40.5626 10.6815C39.9445 10.4773 39.3077 10.9376 39.3077 11.5885V12.084C39.3077 12.5838 38.9025 12.9889 38.4027 12.9889H37.5042V14.4687C37.5042 14.8468 37.8107 15.1534 38.1888 15.1534C38.3081 15.1534 38.4052 15.2468 38.4127 15.3659C38.5354 17.3113 39.9271 18.9121 41.7697 19.3488C42.4513 18.7431 42.9461 17.932 43.1559 17.0118Z" fill="#FFDDCE"/>
<path d="M46.7622 8.84855H46.7184C46.4758 8.84855 46.2791 8.65191 46.2791 8.40933C46.2791 7.69113 45.6969 7.10886 44.9787 7.10886H42.9709V13.4249H47.3383L48.0627 12.9889V10.149C48.0627 9.43082 47.4805 8.84855 46.7622 8.84855Z" fill="#EABC6B"/>
<path d="M47.1642 12.9889C46.6644 12.9889 46.2593 12.5837 46.2593 12.0839V11.5887C46.2593 10.9377 45.6223 10.4774 45.0043 10.6817C44.3433 10.9001 43.6583 11.0172 42.9711 11.0353V15.8779C42.9711 16.2022 42.9425 16.5268 42.8704 16.843C42.6525 17.7989 42.1215 18.6351 41.3918 19.2398C41.8292 19.3864 42.2969 19.4667 42.7836 19.4667C45.109 19.4667 47.0101 17.6546 47.1543 15.3657C47.1618 15.2467 47.259 15.1532 47.3783 15.1532C47.7564 15.1532 48.0629 14.8467 48.0629 14.4685V12.9888H47.1642V12.9889Z" fill="#FFCBBE"/>
<path d="M39.5166 21.2072L38.8472 21.5078C38.4651 21.6793 38.3728 22.1803 38.6687 22.4768L40.5227 24.3336C40.7579 24.5625 41.128 24.5767 41.3799 24.3663L42.8337 23.1519L40.3551 21.2998C40.1132 21.1189 39.7922 21.0835 39.5166 21.2072Z" fill="#CD48C7"/>
<path d="M45.2106 21.3112L42.8337 23.1517L44.2001 24.32C44.4505 24.5341 44.8223 24.5233 45.0599 24.2951L46.9148 22.4887C47.218 22.1934 47.1274 21.6854 46.7409 21.5131L46.0584 21.2091C45.7785 21.0844 45.4528 21.1237 45.2106 21.3112Z" fill="#CD48C7"/>
<path d="M48.4186 39.1685L48.418 31.4565H22.5105V39.9622H47.9132C48.1978 39.8101 48.3965 39.5118 48.4186 39.1685Z" fill="#DDB7A0"/>
<path d="M47.9329 31.4567V39.0818C47.9015 39.5681 47.5073 39.9623 47.021 39.9623H51.329C52.2518 39.9623 52.9999 39.2142 52.9999 38.2914V31.4567H47.9329Z" fill="#D6A889"/>
<path d="M25.2198 29.1959V25.5215H20.6479V29.1959C20.6479 30.4584 22.9339 30.5705 22.9339 30.5705C22.9339 30.5705 25.2198 30.4584 25.2198 29.1959Z" fill="#FFDDCE"/>
<path d="M23.0417 26.7803C24.1548 26.3938 24.901 25.3446 24.9006 24.1663C24.9004 23.5147 24.8052 22.8666 24.6182 22.2425C24.3106 21.2164 24.1541 20.1509 24.1538 19.0796V19.077C24.153 16.6149 22.7301 14.4866 20.6625 13.4652C18.4283 14.3652 16.851 16.5529 16.8502 19.1093V19.1119C16.8499 20.1532 16.6979 21.1889 16.3988 22.1863C16.2169 22.793 16.1244 23.423 16.1243 24.0563C16.1239 25.2017 16.8491 26.2216 17.9311 26.5973C18.9519 26.9516 20.001 27.1944 21.0604 27.3255C21.7291 27.1879 22.391 27.0063 23.0417 26.7803Z" fill="#C051BB"/>
<path d="M29.4706 22.1864C29.1716 21.1889 29.0195 20.1532 29.0192 19.1119V19.1093C29.0182 15.7497 26.2944 13.0268 22.9348 13.0268C22.0256 13.0268 21.1637 13.2276 20.3889 13.5851C22.4768 14.5486 23.9268 16.6589 23.9275 19.1093V19.1119C23.9278 20.1532 24.0799 21.1889 24.3789 22.1864C24.5608 22.793 24.6533 23.4229 24.6534 24.0563C24.6538 25.2017 23.9286 26.2216 22.8466 26.5972C22.042 26.8765 21.2199 27.0864 20.3889 27.227C22.905 27.6528 25.502 27.443 27.9383 26.5972C29.0203 26.2215 29.7456 25.2017 29.7452 24.0563C29.7449 23.423 29.6524 22.7931 29.4706 22.1864Z" fill="#F279EC"/>
<path d="M30.369 8.45326V1.77178C30.369 0.143497 28.9518 0.0018565 27.9745 0.000997126H17.5352C16.5572 0.000997126 15.7644 0.79381 15.7644 1.77178V8.45326C15.7644 9.43123 16.5572 10.224 17.5352 10.224H28.2538L28.6864 10.2007C29.2146 10.1722 29.7162 9.92436 30.0285 9.4974C30.2426 9.20467 30.369 8.84373 30.369 8.45326Z" fill="#E167DB"/>
<path d="M33.1082 0.000997126H27.9744C28.9523 0.000997126 29.7451 0.79381 29.7451 1.77178V8.45326C29.7451 9.30521 29.1434 10.0165 28.3418 10.1856C28.3093 10.1925 28.2798 10.2061 28.2537 10.224H29.9096C29.978 10.224 30.0437 10.2512 30.0921 10.2997L32.7427 12.9503C32.9395 13.1471 33.2761 13.0077 33.2761 12.7294V10.4367C33.2761 10.3168 33.3583 10.2104 33.4756 10.1856C34.2773 10.0165 34.8791 9.30529 34.8791 8.45326V1.77178C34.879 0.79381 34.0862 0.000997126 33.1082 0.000997126Z" fill="#C051BB"/>
<path d="M28.1535 33.8945C28.1535 32.3397 27.2791 31.589 25.637 31.2364L24.7091 31.0598C24.0418 30.9327 23.5276 30.4301 23.3655 29.7963C22.301 29.9785 21.1299 29.4759 20.6534 28.2886L20.648 28.2753L15.5167 29.2676C14.0248 29.7055 13 31.0743 13 32.6292V38.3281C13 39.2522 13.7502 40.0009 14.6743 39.999L27.7779 39.9721L28.1451 39.6906L28.1535 33.8945Z" fill="#CD48C7"/>
<path d="M32.1156 39.9685C32.533 39.9652 32.8696 39.6259 32.8696 39.2085V32.6293C32.8696 31.0746 31.845 29.7057 30.3531 29.2678L25.2199 28.2903C24.8082 29.3139 23.8804 29.8275 22.9502 29.8324C23.0432 30.5624 23.5945 31.1636 24.3335 31.3043L25.2614 31.481C26.9034 31.8336 27.7779 32.5843 27.7779 34.139V39.9727L32.1156 39.9685Z" fill="#DB58D5"/>
<path d="M44.2002 24.3202L42.8338 23.152L41.3799 24.3663C41.2863 24.4446 41.1761 24.4916 41.0627 24.5083L41.9306 25.9988H43.6334L44.4915 24.4609C44.3869 24.4403 44.2863 24.3939 44.2002 24.3202Z" fill="#E28086"/>
</g>
<defs>
<linearGradient id="paint0_linear_1_1050" x1="50" y1="8" x2="50" y2="162" gradientUnits="userSpaceOnUse">
<stop stop-color="#DC51D7"/>
<stop offset="1" stop-color="#EEA1E6"/>
</linearGradient>
<linearGradient id="paint1_linear_1_1050" x1="50" y1="8" x2="50" y2="162" gradientUnits="userSpaceOnUse">
<stop stop-color="#F67A83"/>
<stop offset="1" stop-color="#F9AE97"/>
</linearGradient>
<linearGradient id="paint2_linear_1_1050" x1="1.73611" y1="-9.5" x2="56.4048" y2="39.9861" gradientUnits="userSpaceOnUse">
<stop stop-color="#ED9DE5"/>
<stop offset="1" stop-color="#EA8EE2"/>
</linearGradient>
<clipPath id="clip0_1_1050">
<rect width="40" height="40" fill="white" transform="translate(13)"/>
</clipPath>
</defs>
</svg>
