<svg width="22" height="40" viewBox="0 0 22 40" fill="none" xmlns="http://www.w3.org/2000/svg">
<g clip-path="url(#clip0_1_1056)">
<path d="M35.4177 27.2179C35.4177 25.5819 34.3395 24.1417 32.7697 23.6808L28.3917 22.3955L28.3945 21.4577H26.4365L22.1566 22.7139C20.6224 23.1642 19.5686 24.5717 19.5686 26.1705V33.0074H35.4181L35.4177 27.2179Z" fill="#D050CA"/>
<path d="M35.4186 39.1685L35.418 31.4565H9.5105V39.9622H34.9132C35.1978 39.8101 35.3965 39.5118 35.4186 39.1685Z" fill="#DDB7A0"/>
<path d="M12.2198 29.1959V25.5215H7.64795V29.1959C7.64795 30.4584 9.93389 30.5705 9.93389 30.5705C9.93389 30.5705 12.2198 30.4584 12.2198 29.1959Z" fill="#FFDDCE"/>
<path d="M10.0417 26.7803C11.1548 26.3938 11.901 25.3446 11.9006 24.1663C11.9004 23.5147 11.8052 22.8666 11.6182 22.2425C11.3106 21.2164 11.1541 20.1509 11.1538 19.0796V19.077C11.153 16.6149 9.73013 14.4866 7.66255 13.4652C5.42825 14.3652 3.85099 16.5529 3.85021 19.1093V19.1119C3.84989 20.1532 3.69786 21.1889 3.3988 22.1863C3.21692 22.793 3.12442 23.423 3.12427 24.0563C3.12388 25.2017 3.84911 26.2216 4.93114 26.5973C5.95192 26.9516 7.00099 27.1944 8.06044 27.3255C8.72911 27.1879 9.39099 27.0063 10.0417 26.7803Z" fill="#C051BB"/>
<path d="M16.4706 22.1864C16.1716 21.1889 16.0195 20.1532 16.0192 19.1119V19.1093C16.0182 15.7497 13.2944 13.0268 9.93477 13.0268C9.02556 13.0268 8.16368 13.2276 7.38892 13.5851C9.47681 14.5486 10.9268 16.6589 10.9275 19.1093V19.1119C10.9278 20.1532 11.0799 21.1889 11.3789 22.1864C11.5608 22.793 11.6533 23.4229 11.6534 24.0563C11.6538 25.2017 10.9286 26.2216 9.84657 26.5972C9.04204 26.8765 8.21985 27.0864 7.38892 27.227C9.90501 27.6528 12.502 27.443 14.9383 26.5972C16.0203 26.2215 16.7456 25.2017 16.7452 24.0563C16.7449 23.423 16.6524 22.7931 16.4706 22.1864Z" fill="#F279EC"/>
<path d="M17.369 8.45326V1.77178C17.369 0.143498 15.9518 0.00185692 14.9745 0.000997543H4.53519C3.55722 0.000997543 2.7644 0.79381 2.7644 1.77178V8.45326C2.7644 9.43123 3.55722 10.224 4.53519 10.224H15.2538L15.6864 10.2007C16.2146 10.1722 16.7162 9.92436 17.0285 9.4974C17.2426 9.20467 17.369 8.84373 17.369 8.45326Z" fill="#E167DB"/>
<path d="M20.1082 0.000997543H14.9744C15.9523 0.000997543 16.7451 0.79381 16.7451 1.77178V8.45326C16.7451 9.30521 16.1434 10.0165 15.3418 10.1856C15.3093 10.1925 15.2798 10.2061 15.2537 10.224H16.9096C16.978 10.224 17.0437 10.2512 17.0921 10.2997L19.7427 12.9503C19.9395 13.1471 20.2761 13.0077 20.2761 12.7294V10.4367C20.2761 10.3168 20.3583 10.2104 20.4756 10.1856C21.2773 10.0165 21.8791 9.30529 21.8791 8.45326V1.77178C21.879 0.79381 21.0862 0.000997543 20.1082 0.000997543Z" fill="#C051BB"/>
<path d="M15.1535 33.8945C15.1535 32.3397 14.2791 31.589 12.637 31.2364L11.7091 31.0598C11.0418 30.9328 10.5276 30.4301 10.3655 29.7963C9.30102 29.9785 8.12992 29.4759 7.65336 28.2886L7.64797 28.2753L2.51672 29.2676C1.02484 29.7055 0 31.0743 0 32.6292V38.3281C0 39.2522 0.750156 40.0009 1.6743 39.999L14.7779 39.9721L15.1451 39.6906L15.1535 33.8945Z" fill="#CD48C7"/>
<path d="M19.1156 39.9685C19.533 39.9652 19.8696 39.6259 19.8696 39.2085V32.6293C19.8696 31.0746 18.845 29.7057 17.3531 29.2678L12.2199 28.2904C11.8082 29.3139 10.8804 29.8275 9.9502 29.8324C10.0432 30.5624 10.5945 31.1636 11.3335 31.3043L12.2614 31.481C13.9034 31.8336 14.7779 32.5843 14.7779 34.139V39.9727L19.1156 39.9685Z" fill="#DB58D5"/>
</g>
<defs>
<clipPath id="clip0_1_1056">
<rect width="40" height="40" fill="white"/>
</clipPath>
</defs>
</svg>
