<svg width="28" height="28" viewBox="0 0 28 28" fill="none" xmlns="http://www.w3.org/2000/svg">
<path fill-rule="evenodd" clip-rule="evenodd" d="M14 0C14.7426 0 15.4548 0.295 15.9799 0.820102C16.505 1.3452 16.8 2.05739 16.8 2.8V11.2H25.2C25.9426 11.2 26.6548 11.495 27.1799 12.0201C27.705 12.5452 28 13.2574 28 14C28 14.7426 27.705 15.4548 27.1799 15.9799C26.6548 16.505 25.9426 16.8 25.2 16.8H16.8V25.2C16.8 25.9426 16.505 26.6548 15.9799 27.1799C15.4548 27.705 14.7426 28 14 28C13.2574 28 12.5452 27.705 12.0201 27.1799C11.495 26.6548 11.2 25.9426 11.2 25.2V16.8H2.8C2.05739 16.8 1.3452 16.505 0.820102 15.9799C0.295 15.4548 0 14.7426 0 14C0 13.2574 0.295 12.5452 0.820102 12.0201C1.3452 11.495 2.05739 11.2 2.8 11.2H11.2V2.8C11.2 2.05739 11.495 1.3452 12.0201 0.820102C12.5452 0.295 13.2574 0 14 0V0Z" fill="white"/>
</svg>
