<svg width="87" height="85" viewBox="0 0 87 85" fill="none" xmlns="http://www.w3.org/2000/svg">
<circle cx="40.5" cy="43" r="28" fill="#F2F3F8" stroke="#D3DEFF" stroke-width="3"/>
<g filter="url(#filter0_d_1_743)">
<path d="M57.1662 64.1223C58.3682 65.8946 60.7992 66.3739 62.4072 64.9596C66.2534 61.5765 69.211 57.2781 70.9819 52.4455C73.198 46.398 73.442 39.8244 71.6791 33.6669C69.9161 27.5094 66.2366 22.0841 61.1679 18.1685C57.1154 15.0379 52.3412 13.0009 47.2993 12.219C45.1901 11.8919 43.3996 13.5886 43.3204 15.7217C43.2401 17.8834 44.9524 19.6622 47.0722 20.0933C50.4377 20.7778 53.6135 22.2209 56.3478 24.3332C60.1192 27.2466 62.8569 31.2833 64.1687 35.8648C65.4804 40.4464 65.2988 45.3375 63.6499 49.8371C62.4467 53.1204 60.5074 56.0723 58.0007 58.4769C56.4553 59.9594 55.9642 62.3499 57.1662 64.1223Z" fill="url(#paint0_linear_1_743)"/>
</g>
<path d="M27.658 45.012V43.472L32.236 36.92H34.518V43.304H35.75V45.012H34.518V47H32.558V45.012H27.658ZM32.684 39.02L29.814 43.304H32.684V39.02ZM36.9979 41.764C36.9979 40.1493 37.2872 38.8847 37.8659 37.97C38.4539 37.0553 39.4245 36.598 40.7779 36.598C42.1312 36.598 43.0972 37.0553 43.6759 37.97C44.2639 38.8847 44.5579 40.1493 44.5579 41.764C44.5579 43.388 44.2639 44.662 43.6759 45.586C43.0972 46.51 42.1312 46.972 40.7779 46.972C39.4245 46.972 38.4539 46.51 37.8659 45.586C37.2872 44.662 36.9979 43.388 36.9979 41.764ZM42.6259 41.764C42.6259 41.0733 42.5792 40.4947 42.4859 40.028C42.4019 39.552 42.2245 39.1647 41.9539 38.866C41.6925 38.5673 41.3005 38.418 40.7779 38.418C40.2552 38.418 39.8585 38.5673 39.5879 38.866C39.3265 39.1647 39.1492 39.552 39.0559 40.028C38.9719 40.4947 38.9299 41.0733 38.9299 41.764C38.9299 42.4733 38.9719 43.0707 39.0559 43.556C39.1399 44.032 39.3172 44.4193 39.5879 44.718C39.8585 45.0073 40.2552 45.152 40.7779 45.152C41.3005 45.152 41.6972 45.0073 41.9679 44.718C42.2385 44.4193 42.4159 44.032 42.4999 43.556C42.5839 43.0707 42.6259 42.4733 42.6259 41.764ZM45.8246 39.3C45.8246 38.5907 46.03 38.0353 46.4406 37.634C46.8606 37.2327 47.3973 37.032 48.0506 37.032C48.704 37.032 49.236 37.2327 49.6466 37.634C50.0666 38.0353 50.2766 38.5907 50.2766 39.3C50.2766 40.0187 50.0666 40.5787 49.6466 40.98C49.236 41.3813 48.704 41.582 48.0506 41.582C47.3973 41.582 46.8606 41.3813 46.4406 40.98C46.03 40.5787 45.8246 40.0187 45.8246 39.3ZM54.8126 37.2L49.3106 47H47.4066L52.8946 37.2H54.8126ZM48.0366 38.208C47.5233 38.208 47.2666 38.572 47.2666 39.3C47.2666 40.0373 47.5233 40.406 48.0366 40.406C48.2886 40.406 48.4846 40.3173 48.6246 40.14C48.7646 39.9533 48.8346 39.6733 48.8346 39.3C48.8346 38.572 48.5686 38.208 48.0366 38.208ZM51.9706 44.886C51.9706 44.1673 52.176 43.612 52.5866 43.22C53.0066 42.8187 53.5433 42.618 54.1966 42.618C54.85 42.618 55.3773 42.8187 55.7786 43.22C56.1893 43.612 56.3946 44.1673 56.3946 44.886C56.3946 45.6047 56.1893 46.1647 55.7786 46.566C55.3773 46.9673 54.85 47.168 54.1966 47.168C53.534 47.168 52.9973 46.9673 52.5866 46.566C52.176 46.1647 51.9706 45.6047 51.9706 44.886ZM54.1826 43.794C53.6506 43.794 53.3846 44.158 53.3846 44.886C53.3846 45.6233 53.6506 45.992 54.1826 45.992C54.7053 45.992 54.9666 45.6233 54.9666 44.886C54.9666 44.158 54.7053 43.794 54.1826 43.794Z" fill="#4449D5"/>
<defs>
<filter id="filter0_d_1_743" x="31.3176" y="0.178452" width="55.5259" height="79.6078" filterUnits="userSpaceOnUse" color-interpolation-filters="sRGB">
<feFlood flood-opacity="0" result="BackgroundImageFix"/>
<feColorMatrix in="SourceAlpha" type="matrix" values="0 0 0 0 0 0 0 0 0 0 0 0 0 0 0 0 0 0 127 0" result="hardAlpha"/>
<feOffset dx="1" dy="1"/>
<feGaussianBlur stdDeviation="6.5"/>
<feColorMatrix type="matrix" values="0 0 0 0 0.470781 0 0 0 0 0.570988 0 0 0 0 0.8625 0 0 0 1 0"/>
<feBlend mode="normal" in2="BackgroundImageFix" result="effect1_dropShadow_1_743"/>
<feBlend mode="normal" in="SourceGraphic" in2="effect1_dropShadow_1_743" result="shape"/>
</filter>
<linearGradient id="paint0_linear_1_743" x1="49.983" y1="17.8257" x2="60.7077" y2="63.313" gradientUnits="userSpaceOnUse">
<stop stop-color="#4449D5"/>
<stop offset="1" stop-color="#85A4F3"/>
</linearGradient>
</defs>
</svg>
