<svg width="89" height="89" viewBox="0 0 89 89" fill="none" xmlns="http://www.w3.org/2000/svg">
<circle cx="42.0725" cy="43.3982" r="28" fill="#F2F3F8" stroke="#C3DFD0" stroke-width="3"/>
<g filter="url(#filter0_d_1_718)">
<path d="M18.811 57.1429C16.8728 58.2619 16.1883 60.7617 17.5615 62.529C20.1758 65.8939 23.5019 68.6766 27.3378 70.6838C32.3865 73.3257 38.1215 74.5214 43.9089 74.1387C49.6963 73.7561 55.3106 71.8099 60.1311 68.5155C64.9515 65.2211 68.7904 60.7067 71.2233 55.4714C73.6562 50.2362 74.5882 44.484 73.9165 38.8509C73.2447 33.2177 70.9953 27.923 67.4169 23.5522C63.8385 19.1813 59.0706 15.9046 53.6402 14.0842C49.4131 12.6672 44.9128 12.1757 40.4459 12.6248C38.3176 12.8388 36.9853 14.9152 37.4087 17.012C37.8444 19.1691 39.9714 20.5133 42.169 20.3981C45.1153 20.2436 48.0606 20.6373 50.8465 21.5711C54.887 22.9256 58.4346 25.3637 61.0971 28.6158C63.7596 31.868 65.4333 35.8075 65.9332 39.9989C66.433 44.1902 65.7395 48.4702 63.9293 52.3655C62.1191 56.2608 59.2627 59.6197 55.676 62.071C52.0893 64.5222 47.912 65.9702 43.6059 66.255C39.2997 66.5397 35.0325 65.65 31.2761 63.6843C28.7333 62.3538 26.4917 60.5652 24.6573 58.4205C23.2026 56.7196 20.7492 56.0238 18.811 57.1429Z" fill="url(#paint0_linear_1_718)"/>
</g>
<path d="M36.238 38.278L32.514 47H30.526L34.278 38.502H29.49V36.822H36.238V38.278ZM37.4119 41.764C37.4119 40.1493 37.7013 38.8847 38.2799 37.97C38.8679 37.0553 39.8386 36.598 41.1919 36.598C42.5453 36.598 43.5113 37.0553 44.0899 37.97C44.6779 38.8847 44.9719 40.1493 44.9719 41.764C44.9719 43.388 44.6779 44.662 44.0899 45.586C43.5113 46.51 42.5453 46.972 41.1919 46.972C39.8386 46.972 38.8679 46.51 38.2799 45.586C37.7013 44.662 37.4119 43.388 37.4119 41.764ZM43.0399 41.764C43.0399 41.0733 42.9933 40.4947 42.8999 40.028C42.8159 39.552 42.6386 39.1647 42.3679 38.866C42.1066 38.5673 41.7146 38.418 41.1919 38.418C40.6693 38.418 40.2726 38.5673 40.0019 38.866C39.7406 39.1647 39.5633 39.552 39.4699 40.028C39.3859 40.4947 39.3439 41.0733 39.3439 41.764C39.3439 42.4733 39.3859 43.0707 39.4699 43.556C39.5539 44.032 39.7313 44.4193 40.0019 44.718C40.2726 45.0073 40.6693 45.152 41.1919 45.152C41.7146 45.152 42.1113 45.0073 42.3819 44.718C42.6526 44.4193 42.8299 44.032 42.9139 43.556C42.9979 43.0707 43.0399 42.4733 43.0399 41.764ZM46.2387 39.3C46.2387 38.5907 46.444 38.0353 46.8547 37.634C47.2747 37.2327 47.8114 37.032 48.4647 37.032C49.118 37.032 49.65 37.2327 50.0607 37.634C50.4807 38.0353 50.6907 38.5907 50.6907 39.3C50.6907 40.0187 50.4807 40.5787 50.0607 40.98C49.65 41.3813 49.118 41.582 48.4647 41.582C47.8114 41.582 47.2747 41.3813 46.8547 40.98C46.444 40.5787 46.2387 40.0187 46.2387 39.3ZM55.2267 37.2L49.7247 47H47.8207L53.3087 37.2H55.2267ZM48.4507 38.208C47.9374 38.208 47.6807 38.572 47.6807 39.3C47.6807 40.0373 47.9374 40.406 48.4507 40.406C48.7027 40.406 48.8987 40.3173 49.0387 40.14C49.1787 39.9533 49.2487 39.6733 49.2487 39.3C49.2487 38.572 48.9827 38.208 48.4507 38.208ZM52.3847 44.886C52.3847 44.1673 52.59 43.612 53.0007 43.22C53.4207 42.8187 53.9574 42.618 54.6107 42.618C55.264 42.618 55.7914 42.8187 56.1927 43.22C56.6034 43.612 56.8087 44.1673 56.8087 44.886C56.8087 45.6047 56.6034 46.1647 56.1927 46.566C55.7914 46.9673 55.264 47.168 54.6107 47.168C53.948 47.168 53.4114 46.9673 53.0007 46.566C52.59 46.1647 52.3847 45.6047 52.3847 44.886ZM54.5967 43.794C54.0647 43.794 53.7987 44.158 53.7987 44.886C53.7987 45.6233 54.0647 45.992 54.5967 45.992C55.1194 45.992 55.3807 45.6233 55.3807 44.886C55.3807 44.158 55.1194 43.794 54.5967 43.794Z" fill="#3BB13A"/>
<defs>
<filter id="filter0_d_1_718" x="4.84106" y="0.46377" width="83.2874" height="87.7448" filterUnits="userSpaceOnUse" color-interpolation-filters="sRGB">
<feFlood flood-opacity="0" result="BackgroundImageFix"/>
<feColorMatrix in="SourceAlpha" type="matrix" values="0 0 0 0 0 0 0 0 0 0 0 0 0 0 0 0 0 0 127 0" result="hardAlpha"/>
<feOffset dx="1" dy="1"/>
<feGaussianBlur stdDeviation="6.5"/>
<feColorMatrix type="matrix" values="0 0 0 0 0.149549 0 0 0 0 0.608333 0 0 0 0 0.152972 0 0 0 0.53 0"/>
<feBlend mode="normal" in2="BackgroundImageFix" result="effect1_dropShadow_1_718"/>
<feBlend mode="normal" in="SourceGraphic" in2="effect1_dropShadow_1_718" result="shape"/>
</filter>
<linearGradient id="paint0_linear_1_718" x1="42.9395" y1="14.2635" x2="33.666" y2="64.489" gradientUnits="userSpaceOnUse">
<stop stop-color="#47D544"/>
<stop offset="1" stop-color="#91CDB0"/>
</linearGradient>
</defs>
</svg>
