<svg width="91" height="88" viewBox="0 0 91 88" fill="none" xmlns="http://www.w3.org/2000/svg">
<circle cx="43.855" cy="42.8177" r="28" fill="#F2F3F8" stroke="#F0CBEF" stroke-width="3"/>
<g filter="url(#filter0_d_1_789)">
<path d="M75.0943 50.952C70.7198 67.2778 53.4794 76.8432 36.5868 72.3169C19.6942 67.7905 9.54632 50.8864 13.9208 34.5606C18.2953 18.2347 35.5357 8.66934 52.4283 13.1957C69.3209 17.7221 79.4688 34.6261 75.0943 50.952ZM21.7494 36.6582C18.4945 48.8056 26.0451 61.3831 38.6141 64.751C51.1831 68.1188 64.0109 61.0017 67.2658 48.8543C70.5207 36.707 62.97 24.1294 50.401 20.7616C37.832 17.3937 25.0042 24.5109 21.7494 36.6582Z" fill="url(#paint0_linear_1_789)"/>
</g>
<path d="M27.504 38.6V36.794H30.878V47H28.862V38.6H27.504ZM32.8143 41.764C32.8143 40.1493 33.1036 38.8847 33.6823 37.97C34.2703 37.0553 35.2409 36.598 36.5943 36.598C37.9476 36.598 38.9136 37.0553 39.4923 37.97C40.0803 38.8847 40.3743 40.1493 40.3743 41.764C40.3743 43.388 40.0803 44.662 39.4923 45.586C38.9136 46.51 37.9476 46.972 36.5943 46.972C35.2409 46.972 34.2703 46.51 33.6823 45.586C33.1036 44.662 32.8143 43.388 32.8143 41.764ZM38.4423 41.764C38.4423 41.0733 38.3956 40.4947 38.3023 40.028C38.2183 39.552 38.0409 39.1647 37.7703 38.866C37.5089 38.5673 37.1169 38.418 36.5943 38.418C36.0716 38.418 35.6749 38.5673 35.4043 38.866C35.1429 39.1647 34.9656 39.552 34.8723 40.028C34.7883 40.4947 34.7463 41.0733 34.7463 41.764C34.7463 42.4733 34.7883 43.0707 34.8723 43.556C34.9563 44.032 35.1336 44.4193 35.4043 44.718C35.6749 45.0073 36.0716 45.152 36.5943 45.152C37.1169 45.152 37.5136 45.0073 37.7843 44.718C38.0549 44.4193 38.2323 44.032 38.3163 43.556C38.4003 43.0707 38.4423 42.4733 38.4423 41.764ZM41.865 41.764C41.865 40.1493 42.1544 38.8847 42.733 37.97C43.321 37.0553 44.2917 36.598 45.645 36.598C46.9984 36.598 47.9644 37.0553 48.543 37.97C49.131 38.8847 49.425 40.1493 49.425 41.764C49.425 43.388 49.131 44.662 48.543 45.586C47.9644 46.51 46.9984 46.972 45.645 46.972C44.2917 46.972 43.321 46.51 42.733 45.586C42.1544 44.662 41.865 43.388 41.865 41.764ZM47.493 41.764C47.493 41.0733 47.4464 40.4947 47.353 40.028C47.269 39.552 47.0917 39.1647 46.821 38.866C46.5597 38.5673 46.1677 38.418 45.645 38.418C45.1224 38.418 44.7257 38.5673 44.455 38.866C44.1937 39.1647 44.0164 39.552 43.923 40.028C43.839 40.4947 43.797 41.0733 43.797 41.764C43.797 42.4733 43.839 43.0707 43.923 43.556C44.007 44.032 44.1844 44.4193 44.455 44.718C44.7257 45.0073 45.1224 45.152 45.645 45.152C46.1677 45.152 46.5644 45.0073 46.835 44.718C47.1057 44.4193 47.283 44.032 47.367 43.556C47.451 43.0707 47.493 42.4733 47.493 41.764ZM50.6918 39.3C50.6918 38.5907 50.8972 38.0353 51.3078 37.634C51.7278 37.2327 52.2645 37.032 52.9178 37.032C53.5712 37.032 54.1032 37.2327 54.5138 37.634C54.9338 38.0353 55.1438 38.5907 55.1438 39.3C55.1438 40.0187 54.9338 40.5787 54.5138 40.98C54.1032 41.3813 53.5712 41.582 52.9178 41.582C52.2645 41.582 51.7278 41.3813 51.3078 40.98C50.8972 40.5787 50.6918 40.0187 50.6918 39.3ZM59.6798 37.2L54.1778 47H52.2738L57.7618 37.2H59.6798ZM52.9038 38.208C52.3905 38.208 52.1338 38.572 52.1338 39.3C52.1338 40.0373 52.3905 40.406 52.9038 40.406C53.1558 40.406 53.3518 40.3173 53.4918 40.14C53.6318 39.9533 53.7018 39.6733 53.7018 39.3C53.7018 38.572 53.4358 38.208 52.9038 38.208ZM56.8378 44.886C56.8378 44.1673 57.0432 43.612 57.4538 43.22C57.8738 42.8187 58.4105 42.618 59.0638 42.618C59.7172 42.618 60.2445 42.8187 60.6458 43.22C61.0565 43.612 61.2618 44.1673 61.2618 44.886C61.2618 45.6047 61.0565 46.1647 60.6458 46.566C60.2445 46.9673 59.7172 47.168 59.0638 47.168C58.4012 47.168 57.8645 46.9673 57.4538 46.566C57.0432 46.1647 56.8378 45.6047 56.8378 44.886ZM59.0498 43.794C58.5178 43.794 58.2518 44.158 58.2518 44.886C58.2518 45.6233 58.5178 45.992 59.0498 45.992C59.5725 45.992 59.8338 45.6233 59.8338 44.886C59.8338 44.158 59.5725 43.794 59.0498 43.794Z" fill="#F17720"/>
<defs>
<filter id="filter0_d_1_789" x="0.904297" y="0.0728302" width="89.2065" height="87.3669" filterUnits="userSpaceOnUse" color-interpolation-filters="sRGB">
<feFlood flood-opacity="0" result="BackgroundImageFix"/>
<feColorMatrix in="SourceAlpha" type="matrix" values="0 0 0 0 0 0 0 0 0 0 0 0 0 0 0 0 0 0 127 0" result="hardAlpha"/>
<feOffset dx="1" dy="1"/>
<feGaussianBlur stdDeviation="6.5"/>
<feColorMatrix type="matrix" values="0 0 0 0 1 0 0 0 0 0.771528 0 0 0 0 0.608333 0 0 0 1 0"/>
<feBlend mode="normal" in2="BackgroundImageFix" result="effect1_dropShadow_1_789"/>
<feBlend mode="normal" in="SourceGraphic" in2="effect1_dropShadow_1_789" result="shape"/>
</filter>
<linearGradient id="paint0_linear_1_789" x1="69.2825" y1="45.8174" x2="43.1818" y2="14.1361" gradientUnits="userSpaceOnUse">
<stop stop-color="#F89249"/>
<stop offset="1" stop-color="#FF6A00"/>
</linearGradient>
</defs>
</svg>
