<svg width="85" height="81" viewBox="0 0 85 81" fill="none" xmlns="http://www.w3.org/2000/svg">
<circle cx="37.855" cy="42.8177" r="28" fill="#F2F3F8" stroke="#F0CBEF" stroke-width="3"/>
<g filter="url(#filter0_d_1_766)">
<path d="M65.1801 49.9031C67.3418 50.4824 69.5935 49.1988 69.8722 46.9782C70.3028 43.5478 70.1318 40.0514 69.3565 36.6385C68.2789 31.8948 66.0644 27.4469 62.894 23.6586C59.7237 19.8702 55.6876 16.8489 51.1156 14.8417C47.7724 13.374 44.2122 12.479 40.594 12.1866C38.4005 12.0093 36.7018 13.9141 36.8393 16.1105C36.973 18.2454 38.7994 19.8478 40.924 20.0961C43.3181 20.376 45.6678 21.0113 47.8886 21.9863C51.2904 23.4798 54.2935 25.7278 56.6524 28.5465C59.0113 31.3653 60.659 34.6747 61.4609 38.2043C61.9602 40.4023 62.1226 42.6469 61.9495 44.8658C61.7755 47.0971 63.0183 49.3239 65.1801 49.9031Z" fill="url(#paint0_linear_1_766)"/>
</g>
<path d="M24.77 39.482C24.8167 38.5487 25.1433 37.83 25.75 37.326C26.366 36.8127 27.1733 36.556 28.172 36.556C28.8533 36.556 29.4367 36.6773 29.922 36.92C30.4073 37.1533 30.7713 37.4753 31.014 37.886C31.266 38.2873 31.392 38.7447 31.392 39.258C31.392 39.846 31.238 40.3453 30.93 40.756C30.6313 41.1573 30.272 41.428 29.852 41.568V41.624C30.3933 41.792 30.8133 42.0907 31.112 42.52C31.42 42.9493 31.574 43.5 31.574 44.172C31.574 44.732 31.4433 45.2313 31.182 45.67C30.93 46.1087 30.552 46.454 30.048 46.706C29.5533 46.9487 28.956 47.07 28.256 47.07C27.2013 47.07 26.3427 46.804 25.68 46.272C25.0173 45.74 24.6673 44.956 24.63 43.92H26.534C26.5527 44.3773 26.7067 44.746 26.996 45.026C27.2947 45.2967 27.7007 45.432 28.214 45.432C28.69 45.432 29.054 45.3013 29.306 45.04C29.5673 44.7693 29.698 44.424 29.698 44.004C29.698 43.444 29.5207 43.0427 29.166 42.8C28.8113 42.5573 28.2607 42.436 27.514 42.436H27.108V40.826H27.514C28.8393 40.826 29.502 40.3827 29.502 39.496C29.502 39.0947 29.3807 38.782 29.138 38.558C28.9047 38.334 28.564 38.222 28.116 38.222C27.6773 38.222 27.3367 38.3433 27.094 38.586C26.8607 38.8193 26.7253 39.118 26.688 39.482H24.77ZM33.1229 41.764C33.1229 40.1493 33.4122 38.8847 33.9909 37.97C34.5789 37.0553 35.5495 36.598 36.9029 36.598C38.2562 36.598 39.2222 37.0553 39.8009 37.97C40.3889 38.8847 40.6829 40.1493 40.6829 41.764C40.6829 43.388 40.3889 44.662 39.8009 45.586C39.2222 46.51 38.2562 46.972 36.9029 46.972C35.5495 46.972 34.5789 46.51 33.9909 45.586C33.4122 44.662 33.1229 43.388 33.1229 41.764ZM38.7509 41.764C38.7509 41.0733 38.7042 40.4947 38.6109 40.028C38.5269 39.552 38.3495 39.1647 38.0789 38.866C37.8175 38.5673 37.4255 38.418 36.9029 38.418C36.3802 38.418 35.9835 38.5673 35.7129 38.866C35.4515 39.1647 35.2742 39.552 35.1809 40.028C35.0969 40.4947 35.0549 41.0733 35.0549 41.764C35.0549 42.4733 35.0969 43.0707 35.1809 43.556C35.2649 44.032 35.4422 44.4193 35.7129 44.718C35.9835 45.0073 36.3802 45.152 36.9029 45.152C37.4255 45.152 37.8222 45.0073 38.0929 44.718C38.3635 44.4193 38.5409 44.032 38.6249 43.556C38.7089 43.0707 38.7509 42.4733 38.7509 41.764ZM41.9496 39.3C41.9496 38.5907 42.155 38.0353 42.5656 37.634C42.9856 37.2327 43.5223 37.032 44.1756 37.032C44.829 37.032 45.361 37.2327 45.7716 37.634C46.1916 38.0353 46.4016 38.5907 46.4016 39.3C46.4016 40.0187 46.1916 40.5787 45.7716 40.98C45.361 41.3813 44.829 41.582 44.1756 41.582C43.5223 41.582 42.9856 41.3813 42.5656 40.98C42.155 40.5787 41.9496 40.0187 41.9496 39.3ZM50.9376 37.2L45.4356 47H43.5316L49.0196 37.2H50.9376ZM44.1616 38.208C43.6483 38.208 43.3916 38.572 43.3916 39.3C43.3916 40.0373 43.6483 40.406 44.1616 40.406C44.4136 40.406 44.6096 40.3173 44.7496 40.14C44.8896 39.9533 44.9596 39.6733 44.9596 39.3C44.9596 38.572 44.6936 38.208 44.1616 38.208ZM48.0956 44.886C48.0956 44.1673 48.301 43.612 48.7116 43.22C49.1316 42.8187 49.6683 42.618 50.3216 42.618C50.975 42.618 51.5023 42.8187 51.9036 43.22C52.3143 43.612 52.5196 44.1673 52.5196 44.886C52.5196 45.6047 52.3143 46.1647 51.9036 46.566C51.5023 46.9673 50.975 47.168 50.3216 47.168C49.659 47.168 49.1223 46.9673 48.7116 46.566C48.301 46.1647 48.0956 45.6047 48.0956 44.886ZM50.3076 43.794C49.7756 43.794 49.5096 44.158 49.5096 44.886C49.5096 45.6233 49.7756 45.992 50.3076 45.992C50.8303 45.992 51.0916 45.6233 51.0916 44.886C51.0916 44.158 50.8303 43.794 50.3076 43.794Z" fill="#DD52D7"/>
<circle cx="66.3" cy="46" r="2" fill="#F0F2F7"/>
<defs>
<filter id="filter0_d_1_766" x="24.8315" y="0.17511" width="59.2717" height="63.8668" filterUnits="userSpaceOnUse" color-interpolation-filters="sRGB">
<feFlood flood-opacity="0" result="BackgroundImageFix"/>
<feColorMatrix in="SourceAlpha" type="matrix" values="0 0 0 0 0 0 0 0 0 0 0 0 0 0 0 0 0 0 127 0" result="hardAlpha"/>
<feOffset dx="1" dy="1"/>
<feGaussianBlur stdDeviation="6.5"/>
<feColorMatrix type="matrix" values="0 0 0 0 0.920833 0 0 0 0 0.717483 0 0 0 0 0.915337 0 0 0 1 0"/>
<feBlend mode="normal" in2="BackgroundImageFix" result="effect1_dropShadow_1_766"/>
<feBlend mode="normal" in="SourceGraphic" in2="effect1_dropShadow_1_766" result="shape"/>
</filter>
<linearGradient id="paint0_linear_1_766" x1="63.2825" y1="45.8174" x2="37.1818" y2="14.1361" gradientUnits="userSpaceOnUse">
<stop stop-color="#EEA1E6"/>
<stop offset="1" stop-color="#DC4FD6"/>
</linearGradient>
</defs>
</svg>
