<svg width="398" height="334" viewBox="0 0 398 334" fill="none" xmlns="http://www.w3.org/2000/svg">
<path d="M160.247 50.4795C161.568 50.5149 162.895 50.5291 164.223 50.5504C169.683 50.7347 175.15 50.6496 180.61 50.5787C183.436 50.7985 186.276 50.6922 189.109 50.6213C189.144 51.6279 189.18 52.6274 189.222 53.634C187.326 53.6695 185.445 53.7049 183.556 53.712C180.993 53.6837 178.43 53.6482 175.867 53.6482C170.649 53.6837 165.437 53.5064 160.226 53.5986C160.204 52.5565 160.197 51.5145 160.247 50.4795Z" fill="#FEFEFE"/>
<path d="M160.14 58.171C167.588 58.1568 175.043 58.3553 182.491 58.1143L182.924 58.1781C182.896 59.1847 182.867 60.1913 182.846 61.205C182.093 61.2405 181.348 61.2759 180.602 61.3255C177.052 61.2334 173.502 61.0774 169.959 61.2617C166.736 61.1412 163.513 61.1696 160.289 61.1696C160.24 60.17 160.176 59.1705 160.14 58.171Z" fill="#FEFEFE"/>
<path d="M281.643 2.69377C288.125 0.893196 294.877 0.552933 301.551 0C309.013 0.552933 316.617 0.94282 323.781 3.26088C323.448 3.33886 322.787 3.48773 322.454 3.56571C327.125 11.4344 331.002 19.7425 335.539 27.6963C339.543 34.4661 342.511 41.8031 346.792 48.4171C349.902 55.2791 354.041 61.6095 357.258 68.4219C360.339 73.7102 363.101 79.1615 365.898 84.5987C370.002 92.1838 374.411 99.5917 378.039 107.418C380.006 107.538 381.98 107.623 383.954 107.659L383.947 108.46C369.981 108.439 356.008 108.339 342.042 108.389C339.529 108.311 337.726 110.296 335.731 111.501C332.727 110.317 329.561 111.31 326.905 112.834C327.012 110.558 326.543 108.105 324.711 106.567C322.865 104.703 320.146 104.37 317.647 104.596C316.759 97.7911 312.215 90.9858 305.158 89.5326C299.513 79.8066 294.735 69.6057 289.14 59.8443C286.954 56.4559 285.725 52.5641 283.475 49.2181C282.111 47.1552 281.501 44.7096 280.13 42.6538C275.537 35.0262 271.681 26.9945 267.393 19.1967C266.051 16.7439 265.05 14.0714 263.332 11.8384C262.018 11.5832 260.641 12.2 259.299 12.2638C265.909 7.48586 273.819 4.81335 281.643 2.69377Z" fill="#EBF6FD"/>
<path d="M322.453 3.56654C322.787 3.48856 323.447 3.3397 323.781 3.26172C338.84 7.25276 352.437 16.0004 363.03 27.2647C376.477 41.8323 384.813 60.9936 386.233 80.7574C387.007 89.7461 386.403 98.9616 383.954 107.66C381.98 107.624 380.006 107.539 378.039 107.419C374.411 99.5925 370.002 92.1846 365.898 84.5995C363.101 79.1624 360.339 73.711 357.258 68.4227C354.041 61.6103 349.902 55.2799 346.792 48.4179C342.511 41.804 339.543 34.467 335.539 27.6971C331.002 19.7434 327.125 11.4352 322.453 3.56654Z" fill="#E6F4FC"/>
<path d="M259.299 12.2633C260.641 12.1995 262.018 11.5827 263.332 11.8379C265.05 14.0709 266.051 16.7434 267.393 19.1962C271.682 26.994 275.537 35.0257 280.131 42.6533C281.501 44.7091 282.111 47.1547 283.475 49.2176C285.725 52.5635 286.954 56.4554 289.14 59.8438C294.735 69.6052 299.514 79.8061 305.158 89.5321C300.323 88.8941 294.92 89.5533 291.448 93.3105C288.225 95.9901 287.862 100.605 289.325 104.312C288.331 106.042 288.118 108.062 287.408 109.906C286.556 111.571 285.42 113.074 284.447 114.669C285.306 115.385 286.158 116.108 286.996 116.853C286.897 119.419 286.343 122.198 287.436 124.622C288.643 126.756 291.327 126.933 293.5 126.649C294.203 126.586 295.601 126.458 296.304 126.387C297.611 129.627 298.562 133.008 299.357 136.411C298.69 137.042 298.008 137.687 297.66 138.559C294.742 144.698 291.838 150.879 289.9 157.408C289.084 160.3 288.317 163.342 288.807 166.361C289.46 169.92 291.292 173.124 293.479 175.96C298.321 182.191 304.448 187.231 310.171 192.604C305.03 190.754 300.11 188.337 294.97 186.501C291.739 187.706 289.069 190.173 286.499 192.427L286.087 192.86C281.068 182.815 275.721 172.919 270.276 163.1C267.975 158.783 265.895 154.346 263.304 150.185C261.5 147.363 260.691 144.017 258.582 141.38C253.683 131.782 248.351 122.361 243.495 112.727C246.853 113.457 250.36 113.762 253.669 112.599C253.591 112.337 253.427 111.805 253.342 111.543C256.388 110.891 259.036 109.239 261.841 107.984C266.981 108.941 271.802 111.182 276.964 112.103C275.04 107.46 272.157 103.292 270.034 98.7476C269.005 96.8762 270.02 94.7849 270.155 92.8284C271.348 84.6195 266.903 76.2192 259.867 72.0084C251.084 66.3089 238.986 69.2224 232.234 76.7154C229.884 70.86 226.511 65.522 223.508 59.9927C222.784 60.4606 222.067 60.9213 221.335 61.3679C221.364 58.8939 222.507 56.668 223.402 54.4208C226.802 44.9643 232.411 36.408 238.929 28.8087C243.246 24.605 247.222 19.9547 252.32 16.6442C254.642 15.2122 256.58 12.8871 259.299 12.2633Z" fill="#F4FAFD"/>
<path d="M161.823 36.436C166.85 34.0471 172.637 33.5083 178.075 34.5149L178.331 34.8056C180.475 38.3925 184.309 40.3207 187.05 43.3689C189.251 45.7224 191.977 47.5017 194.192 49.8411C195.335 50.8406 196.407 52.6128 198.189 51.9323C199.595 56.4125 200.149 61.2329 198.992 65.8336C198.828 65.5429 198.495 64.9688 198.331 64.6781C198.012 65.4083 197.664 66.1242 197.295 66.826C196.613 67.1521 196.116 66.4432 195.612 66.1313C191.949 63.154 188.484 59.9427 185.175 56.5826C184.366 55.7957 183.975 54.7253 183.556 53.7116C185.445 53.7045 187.326 53.6691 189.222 53.6336C189.18 52.627 189.144 51.6275 189.109 50.6209C186.276 50.6917 183.436 50.7981 180.61 50.5783C178.579 49.1747 175.633 49.9261 173.957 47.9909C170.152 43.8864 165.622 40.5546 161.823 36.436Z" fill="#FEE7B0"/>
<path d="M178.331 34.8066C182.981 34.8704 187.163 37.628 190.642 40.5061C194.114 43.5543 196.854 47.4887 198.189 51.9334C196.407 52.6139 195.335 50.8417 194.192 49.8422C191.977 47.5028 189.25 45.7235 187.049 43.37C184.309 40.3218 180.475 38.3936 178.331 34.8066Z" fill="#FEEDC3"/>
<path d="M154.126 42.136C156.242 39.7045 159.061 38.0386 161.823 36.4365C165.621 40.5552 170.151 43.8869 173.957 47.9914C175.632 49.9267 178.579 49.1752 180.609 50.5788C175.15 50.6497 169.683 50.7348 164.223 50.5505C160.481 49.4021 157.329 47.0273 154.574 44.3123C154.297 43.6175 154.24 42.859 154.126 42.136Z" fill="#FEE097"/>
<path d="M149.547 48.6656C150.747 46.2766 152.309 44.0933 154.127 42.1367C154.24 42.8598 154.297 43.6183 154.574 44.313C157.329 47.0281 160.481 49.4028 164.223 50.5512C162.895 50.53 161.568 50.5158 160.247 50.4803C160.197 51.5153 160.204 52.5574 160.226 53.5995C165.437 53.5073 170.649 53.6845 175.867 53.6491C175.413 54.4218 174.944 55.1803 174.497 55.9601C177.081 56.9667 179.822 57.4062 182.491 58.1151C175.043 58.3561 167.588 58.1576 160.141 58.1718C160.176 59.1713 160.24 60.1708 160.29 61.1704L159.977 61.1491C159.48 59.6179 159.523 57.7464 158.224 56.6051C155.369 53.9184 152.359 51.4019 149.547 48.6656Z" fill="#FED982"/>
<path d="M149.547 48.6641C152.359 51.4004 155.369 53.9169 158.224 56.6036C159.523 57.7449 159.48 59.6164 159.977 61.1476L160.29 61.1689C163.513 61.1689 166.736 61.1405 169.96 61.261C168.504 62.0479 166.886 62.4094 165.26 62.6221C167.248 63.8059 169.278 64.9118 171.309 66.0318C167.581 66.0744 163.854 66.0602 160.133 66.0389C160.091 67.003 160.055 67.9671 160.034 68.9312C165.16 68.9383 170.294 69.0446 175.427 69.0446C175.327 69.2927 175.129 69.7748 175.029 70.0229C173.744 70.193 172.445 70.2993 171.153 70.4128C175.938 74.8079 181.185 78.6997 185.445 83.6335C178.806 86.9724 170.812 87.5537 163.868 84.8174C161.553 84.073 159.622 82.5702 157.471 81.514C151.251 84.4062 145.408 88.0924 139.125 90.8429C142.014 83.7895 144.939 76.7573 147.829 69.7039C148.44 68.4704 147.779 67.1377 147.581 65.8901C146.182 60.141 147.077 54.002 149.547 48.6641Z" fill="#FDD36E"/>
<path d="M175.867 53.6494C178.43 53.6494 180.993 53.6849 183.556 53.7132C183.975 54.7269 184.366 55.7973 185.175 56.5842C188.484 59.9443 191.948 63.1556 195.612 66.1329C196.116 66.4449 196.613 67.1538 197.295 66.8277C197.664 66.1259 198.012 65.4099 198.331 64.6797C198.495 64.9704 198.828 65.5446 198.992 65.8352C198.14 69.5781 196.542 73.1368 194.277 76.2346L194.093 76.2701C191.359 77.5177 189.598 74.7318 187.908 73.0942C184.323 69.245 180.077 66.1329 176.094 62.7232C177.656 62.4893 179.175 62.0285 180.603 61.3267C181.348 61.2771 182.094 61.2416 182.846 61.2062C182.867 60.1925 182.896 59.1858 182.924 58.1792L182.491 58.1154C179.822 57.4065 177.081 56.967 174.497 55.9604C174.944 55.1806 175.412 54.4221 175.867 53.6494Z" fill="#FEE098"/>
<path d="M169.96 61.2617C173.503 61.0773 177.053 61.2333 180.603 61.3255C179.176 62.0273 177.656 62.488 176.094 62.722C180.077 66.1317 184.323 69.2437 187.909 73.093C189.598 74.7305 191.359 77.5165 194.093 76.2688C191.87 79.395 188.782 81.7982 185.445 83.6342C181.185 78.7003 175.938 74.8085 171.153 70.4134C172.445 70.3 173.744 70.1937 175.029 70.0235C175.129 69.7754 175.327 69.2934 175.427 69.0452C175.42 68.4072 175.405 67.1313 175.398 66.4933C174.234 65.7418 172.644 66.1743 171.309 66.0325C169.278 64.9124 167.248 63.8066 165.26 62.6227C166.885 62.4101 168.504 62.0485 169.96 61.2617Z" fill="#FED981"/>
<path d="M160.133 66.0393C163.853 66.0606 167.581 66.0748 171.308 66.0322C172.643 66.174 174.234 65.7416 175.398 66.493C175.405 67.131 175.419 68.407 175.426 69.045C170.293 69.045 165.16 68.9387 160.034 68.9316C160.055 67.9675 160.091 67.0034 160.133 66.0393Z" fill="#FEFFFF"/>
<path d="M232.234 76.7156C238.986 69.2227 251.085 66.3091 259.867 72.0086C259.221 74.1991 257.041 75.1561 255.309 76.3541C252.32 78.2964 249.608 80.6358 246.562 82.4789C244.56 83.4359 242.302 83.6485 240.186 84.2369C239.405 84.3929 238.638 84.5559 237.871 84.719C237.893 85.4278 237.928 86.1438 237.978 86.8527C238.184 87.3135 238.397 87.7743 238.624 88.235C234.925 90.5956 231.29 93.1335 228.052 96.0966L227.768 96.3589C226.277 89.5748 227.64 82.0677 232.234 76.7156Z" fill="#DDEEF9"/>
<path d="M255.309 76.3543C257.041 75.1562 259.221 74.1993 259.867 72.0088C266.903 76.2196 271.348 84.6199 270.155 92.8288C270.02 94.7854 269.005 96.8766 270.034 98.748C272.157 103.292 275.04 107.46 276.964 112.104C271.802 111.182 266.981 108.942 261.841 107.985C259.036 109.24 256.388 110.891 253.342 111.543C242.571 114.259 230.558 106.893 228.052 96.0968C231.289 93.1337 234.925 90.5958 238.624 88.2352C238.396 87.7745 238.183 87.3137 237.978 86.8529C245.873 86.8033 253.761 86.8671 261.656 86.9167C261.663 86.4205 261.677 85.428 261.685 84.9318C254.528 84.3576 247.307 85.2579 240.186 84.2371C242.301 83.6487 244.559 83.4361 246.561 82.4791C249.607 80.636 252.32 78.2966 255.309 76.3543ZM237.765 89.9011C237.786 90.3903 237.836 91.3685 237.857 91.8577C245.383 91.7442 252.916 91.9285 260.442 91.9002C261.713 92.1767 261.585 90.7731 261.805 89.9791C256.636 89.5183 251.439 89.8161 246.263 89.7097C243.43 89.7806 240.569 89.3624 237.765 89.9011ZM237.779 94.9271C237.786 95.4021 237.8 96.3591 237.807 96.834C243.139 96.8978 248.471 96.9971 253.803 96.8624C253.803 96.4158 253.803 95.5297 253.803 95.0831C248.471 94.757 243.104 94.6365 237.779 94.9271Z" fill="#CFE7F7"/>
<path d="M118.03 76.9005C122.276 74.9014 127.729 78.2332 127.928 82.8906C128.425 86.6193 125.166 89.6534 121.772 90.4473C118.939 91.057 116.241 89.7668 113.465 89.6038C111.562 90.1283 109.418 91.0783 108.396 92.8363C108.09 96.643 108.672 100.471 109.12 104.249C109.539 106.121 109.659 108.552 111.47 109.672C115.354 109.623 118.257 105.433 122.361 106.553L123.022 106.617C123.426 109.58 123.156 112.572 123.029 115.542C122.887 117.612 122.872 119.909 121.396 121.546C120.402 121.447 119.408 121.355 118.414 121.263C114.651 120.745 110.703 120.596 107.245 118.838C106.45 117.64 106.159 116.223 105.903 114.833C105.208 111.026 104.391 107.227 104.057 103.363C103.923 101.471 103.241 99.3652 101.537 98.3373C100.124 97.5504 98.6117 98.3869 97.4331 99.195C94.0109 97.2314 95.8569 91.8297 99.1655 90.6955C96.8367 87.7181 97.6248 82.8268 101.203 81.2389C104.562 79.4667 107.87 82.7134 111.342 81.6359C114.494 81.5083 115.268 77.7795 118.03 76.9005Z" fill="#131436"/>
<path d="M237.871 84.7184C238.638 84.5553 239.405 84.3923 240.186 84.2363C247.307 85.2571 254.528 84.3568 261.685 84.931C261.677 85.4273 261.663 86.4197 261.656 86.9159C253.761 86.8663 245.873 86.8025 237.978 86.8521C237.928 86.1432 237.892 85.4273 237.871 84.7184Z" fill="white"/>
<path d="M237.765 89.8999C240.569 89.3611 243.43 89.7794 246.263 89.7085C251.439 89.8148 256.636 89.5171 261.805 89.9779C261.585 90.7718 261.713 92.1754 260.442 91.8989C252.916 91.9273 245.383 91.743 237.857 91.8564C237.836 91.3673 237.786 90.389 237.765 89.8999Z" fill="white"/>
<path d="M291.448 93.3105C294.92 89.5533 300.323 88.8941 305.158 89.5321C312.215 90.9853 316.759 97.7906 317.647 104.596C320.146 104.369 322.865 104.702 324.711 106.567C326.543 108.105 327.012 110.558 326.905 112.833C329.561 111.309 332.727 110.317 335.73 111.501C337.96 112.507 340.054 114.18 340.849 116.576C341.545 119.022 341.233 121.701 339.976 123.913C343.831 123.289 348.163 124.282 350.648 127.472C352.778 129.733 352.841 133.072 352.351 135.957C351.464 139.161 348.702 141.394 345.834 142.826C348.304 144.152 350.399 146.619 350.356 149.554C350.782 154.728 345.578 158.599 340.786 158.79C340.409 159.35 340.047 159.91 339.692 160.485C339.529 160.768 339.202 161.328 339.039 161.612C339.181 166.928 339.813 172.224 339.905 177.555C335.901 173.67 331.84 169.849 327.885 165.922C329.312 163.994 330.81 162.108 332.223 160.166C333.309 158.741 333.196 156.82 334.147 155.317C333.593 154.09 333.047 152.864 332.521 151.638C332.145 147.874 334.559 144.393 338.009 143.025C334.779 141.798 331.612 139.487 330.768 135.971C330.015 133.611 331.399 131.356 332.479 129.364C328.858 130.052 324.754 128.79 322.823 125.501C321.545 123.665 321.715 121.368 321.992 119.27C318.506 123.133 311.079 121.701 309.943 116.42C309.801 115.945 309.673 115.463 309.56 114.981C310.696 113.393 312.13 111.834 312.4 109.828C312.804 107.673 309.915 105.319 308.09 107.02C306.762 108.615 305.776 110.458 304.576 112.146C304.299 108.729 304.334 104.993 302.24 102.086C300.372 99.3289 296.624 97.5709 293.4 98.9178C291.703 100.421 290.638 102.491 289.325 104.312C287.862 100.605 288.224 95.9901 291.448 93.3105Z" fill="#FF5B5E"/>
<path d="M108.395 92.8351C109.418 91.077 111.562 90.1271 113.465 89.6025C116.241 89.7656 118.939 91.0558 121.772 90.4461C121.594 95.2736 122.574 100.101 125.151 104.234C123.937 104.638 122.61 105.099 122.361 106.552C118.257 105.432 115.353 109.622 111.47 109.671C109.659 108.551 109.539 106.12 109.12 104.248C108.672 100.47 108.09 96.6418 108.395 92.8351Z" fill="#F9AD73"/>
<path d="M97.4331 99.1938C98.6117 98.3856 100.124 97.5492 101.537 98.336C103.241 99.3639 103.923 101.469 104.057 103.362C104.391 107.225 105.208 111.025 105.903 114.832C106.159 116.221 106.45 117.639 107.245 118.837C106.734 121.424 106.01 123.962 105.364 126.514C104.952 129.754 105.889 132.972 105.982 136.212L104.867 136.134C99.6484 132.065 94.6286 127.727 89.5024 123.544C92.3992 117.582 95.0191 111.5 97.9301 105.545C97.3337 103.511 95.9705 101.193 97.4331 99.1938Z" fill="#F9AD73"/>
<path d="M293.4 98.9176C296.624 97.5707 300.372 99.3287 302.24 102.086C304.334 104.993 304.299 108.729 304.576 112.145C305.775 110.458 306.762 108.615 308.09 107.02C309.915 105.319 312.804 107.672 312.4 109.827C312.13 111.833 310.696 113.393 309.56 114.981C309.673 115.463 309.801 115.945 309.943 116.42C308.921 118.32 307.685 120.12 306.059 121.559C302.637 124.764 297.951 125.791 293.5 126.649C291.327 126.933 288.643 126.756 287.436 124.622C286.343 122.197 286.897 119.419 286.996 116.852C286.158 116.108 285.306 115.385 284.447 114.669C285.42 113.074 286.556 111.571 287.408 109.905C288.118 108.062 288.331 106.042 289.325 104.312C290.638 102.49 291.703 100.42 293.4 98.9176Z" fill="#F9AD73"/>
<path d="M165.302 114.159C167.418 113.004 169.314 111.423 171.586 110.586C173.013 111.047 171.855 112.373 171.429 113.174C170.229 114.804 168.447 115.875 166.85 117.073C166.836 117.505 166.814 118.363 166.8 118.788C171.287 120.007 175.774 121.262 180.262 122.503C182.711 122.999 184.096 125.508 184.387 127.819C179.949 128.564 175.462 128.755 170.989 129.088C167.141 129.074 163.307 128.592 159.473 128.316C159.338 129.173 159.224 130.038 159.139 130.903C156.668 131.406 154.624 129.996 153.296 128.046C155.014 125.721 156.228 123.084 157.513 120.511C159.082 117.356 162.49 115.953 165.302 114.159Z" fill="#F9AD73"/>
<path d="M165.984 158.697C167.624 157.244 169.101 155.585 170.925 154.338C170.031 158.463 169.434 162.837 167.169 166.481C165.323 168.891 162.419 170.068 159.679 171.117C158.699 171.471 157.705 171.798 156.718 172.131C155.021 172.662 153.388 173.407 151.926 174.42C150.158 172.528 148.745 170.351 147.793 167.948C153.871 165.396 155.958 158.428 161.042 154.642C161.461 157.769 159.828 160.512 158.628 163.248C159.764 162.83 160.95 162.476 161.986 161.831C163.413 160.916 164.77 159.881 165.984 158.697Z" fill="#F9AD73"/>
<path d="M341.574 188.578C345.188 187.416 348.816 186.253 352.344 184.842C353.438 187.671 354.964 190.428 355.213 193.505C355.397 195.419 353.864 196.851 352.529 197.971C351.059 197.737 349.76 198.623 348.375 198.928C343.121 199.892 337.747 198.751 332.493 199.637C329.631 199.615 326.77 199.545 323.923 199.311C317.1 197.482 309.979 197.829 302.992 197.609C297.106 197.375 291.689 194.972 286.499 192.427C289.069 190.173 291.739 187.706 294.969 186.501C300.11 188.337 305.03 190.754 310.17 192.605C317.867 192.888 325.655 192.704 333.16 190.818C334.85 190.4 336.561 190.031 338.265 189.627C339.38 189.315 340.473 188.933 341.574 188.578Z" fill="#F9AD73"/>
<path d="M270.538 215.303C279.087 221.86 287.685 228.36 296.226 234.932C295.246 235.144 294.274 235.364 293.294 235.563C289.147 235.307 285.044 234.676 280.968 233.904C281.891 235.073 282.835 236.229 283.695 237.455C284.845 239.256 285.668 241.234 286.762 243.077C290.354 249.272 291.355 256.595 291.419 263.656C291.398 272.17 290.795 280.676 291.164 289.19C291.299 292.189 292.108 295.52 294.827 297.236C294.82 304.771 292.91 312.151 290.454 319.233C288.246 319.949 285.91 319.892 283.716 319.176C286.769 314.044 286.946 307.834 286.996 302.056C283.269 290.672 278.874 279.499 275.601 267.966C273.222 258.793 270.986 249.57 269.551 240.192C268.891 235.995 268.607 231.742 267.734 227.58C267.989 224.461 267.606 221.349 267.514 218.237C268.508 217.252 269.516 216.267 270.538 215.303Z" fill="#F9AD73"/>
<path d="M237.779 94.9273C243.104 94.6367 248.471 94.7572 253.804 95.0833C253.804 95.5299 253.804 96.416 253.804 96.8626C248.471 96.9973 243.139 96.898 237.807 96.8342C237.8 96.3593 237.786 95.4023 237.779 94.9273Z" fill="#FFFEFE"/>
<path d="M23.1742 108.29C24.0972 107.617 25.2119 108.035 26.2343 108.149C28.769 108.567 31.3463 108.29 33.9023 108.333C45.9794 108.347 58.0565 108.319 70.1265 108.347C72.9381 108.227 75.5793 109.729 77.4679 111.707C78.8595 113.089 79.0228 115.23 80.2653 116.676C83.7159 117.151 87.1665 117.711 90.6526 117.804C90.3402 118.959 90.0562 120.178 89.261 121.121C88.2102 121.66 86.5843 122.014 86.918 123.56C78.5897 131.024 70.9146 140.254 68.9834 151.582C67.2297 160.535 69.4165 169.694 67.819 178.655C66.612 186.126 63.8572 193.243 60.9107 200.176C50.2536 200.127 39.5894 200.155 28.9252 200.162C26.7171 200.035 24.7859 201.197 23.0393 202.395C23.4795 192.322 23.3162 182.242 23.4014 172.161C23.373 168.028 23.5789 163.888 23.2523 159.763C23.4937 144.522 23.3304 129.273 23.4085 114.032C23.3659 112.026 24.154 110.155 24.8782 108.333C24.4522 108.319 23.6002 108.304 23.1742 108.29Z" fill="#F0F3F5"/>
<path d="M335.73 111.501C337.726 110.296 339.529 108.311 342.042 108.389C356.008 108.339 369.981 108.439 383.947 108.46C385.367 108.403 386.801 108.346 388.228 108.233C389.044 109.842 389.953 111.515 389.911 113.379C390.074 129.563 389.868 145.747 390.166 161.931C389.904 167.829 389.996 173.748 390.188 179.653C389.676 187.125 390.472 194.625 389.861 202.09C388.143 200.878 386.133 200.013 383.989 200.147C375.235 200.162 366.473 200.154 357.719 200.162C355.177 200.133 352.572 200.459 350.122 199.616C350.726 199.205 351.933 198.382 352.529 197.971C353.864 196.851 355.397 195.419 355.213 193.505C354.964 190.429 353.438 187.671 352.344 184.842L353.196 184.502C348.787 176.449 344.811 168.134 339.692 160.485C340.047 159.911 340.409 159.351 340.786 158.791C345.578 158.599 350.782 154.729 350.356 149.554C350.399 146.619 348.305 144.152 345.834 142.827C348.702 141.395 351.464 139.162 352.352 135.958C352.841 133.072 352.778 129.734 350.648 127.472C348.163 124.282 343.832 123.29 339.976 123.914C341.233 121.702 341.545 119.022 340.85 116.577C340.054 114.181 337.96 112.508 335.73 111.501Z" fill="#F0F3F5"/>
<path d="M326.543 170.02C330.888 176.4 335.475 182.617 339.941 188.912C340.345 188.827 341.169 188.664 341.574 188.579C340.473 188.933 339.38 189.316 338.265 189.628C334.864 183.709 331.172 177.967 327.544 172.189C327.21 171.459 326.87 170.736 326.543 170.02Z" fill="#F0F3F5"/>
<path d="M23.4299 208.364C30.7642 208.159 38.1127 208.265 45.447 208.315C45.6671 217.303 45.9298 226.292 45.7736 235.281C42.5502 235.749 39.2842 235.387 36.0395 235.458C31.815 235.401 27.5905 235.656 23.3731 235.309C23.3589 226.327 23.366 217.346 23.4299 208.364Z" fill="#F0F3F5"/>
<path d="M51.6736 208.314C53.6119 208.271 55.5502 208.236 57.4956 208.264C56.2105 211.369 54.9467 214.488 53.7894 217.657C61.1734 225.044 69.9135 231.225 79.7825 234.812C76.9141 235.847 73.8398 235.407 70.8649 235.443C64.4252 235.351 57.9855 235.578 51.5458 235.386C51.5245 226.369 51.2476 217.324 51.6736 208.314Z" fill="#F0F3F5"/>
<path d="M347.893 208.294C352.572 208.272 357.25 208.223 361.929 208.279L362.185 208.818C361.56 217.651 362.128 226.519 361.858 235.366C357.463 235.366 352.877 236.195 348.631 234.778C352.337 233.204 355.404 229.567 354.986 225.349C354.332 219.104 350.818 213.695 347.893 208.294Z" fill="#F0F3F5"/>
<path d="M367.616 208.257C375.007 208.307 382.399 208.165 389.79 208.342C389.988 217.352 389.989 226.377 389.797 235.386C382.413 235.528 375.015 235.649 367.638 235.344C367.503 229.51 367.709 223.676 367.552 217.841C367.595 214.644 367.623 211.454 367.616 208.257Z" fill="#F0F3F5"/>
<path d="M15.8826 115.401C16.9547 111.977 19.7805 109.368 23.1743 108.29C23.6003 108.305 24.4523 108.319 24.8783 108.333C24.1541 110.155 23.366 112.026 23.4086 114.032C23.3305 129.274 23.4938 144.522 23.2524 159.763C21.8892 156.374 22.656 152.603 21.5413 149.137C20.3059 148.981 19.0705 148.825 17.8351 148.683C17.6008 147.79 17.3665 146.896 17.1322 146.01C16.621 149.902 18.0481 154.233 15.8968 157.757C15.7548 143.643 15.627 129.515 15.8826 115.401Z" fill="#B6BECA"/>
<path d="M388.228 108.233C393.475 108.183 398.111 113.117 397.721 118.356C397.529 130.52 397.948 142.699 397.444 154.842C396.798 152.907 396.549 150.879 396.535 148.845C394.753 148.668 392.971 148.682 391.203 148.895C390.443 153.212 391.984 157.827 390.166 161.931C389.868 145.747 390.074 129.563 389.911 113.379C389.953 111.515 389.045 109.842 388.228 108.233Z" fill="#B6BECA"/>
<path d="M15.2295 119.036C15.1798 117.788 15.4212 116.555 15.8827 115.399C15.6271 129.513 15.7549 143.642 15.8969 157.755C15.5987 168.942 15.8969 180.142 15.8401 191.336C15.9395 197.375 15.7265 203.415 16.0247 209.448C15.6413 218.826 15.9679 228.226 15.904 237.619C14.5621 235.095 16.0247 231.99 14.839 229.495C4.55109 218.217 0.8733 202.628 0 187.784C0.2698 170.941 2.31459 153.19 11.9422 138.849C13.2202 136.843 15.5632 135.163 15.2721 132.526C15.2934 128.032 15.2437 123.53 15.2295 119.036Z" fill="#EAF5FD"/>
<path d="M306.06 121.56C307.685 120.121 308.921 118.321 309.943 116.421C311.079 121.702 318.506 123.134 321.992 119.271C321.715 121.369 321.545 123.666 322.823 125.502C324.754 128.791 328.858 130.053 332.479 129.365C331.399 131.357 330.015 133.611 330.768 135.972C331.613 139.488 334.779 141.799 338.01 143.025C334.559 144.394 332.145 147.874 332.521 151.638C326.607 145.138 319.401 139.885 312.13 135.001C309.965 130.584 308.197 125.984 306.06 121.56Z" fill="#F0F8FD"/>
<path d="M107.245 118.838C110.703 120.596 114.651 120.745 118.414 121.262C118.101 121.525 117.462 122.056 117.15 122.326C127.814 123.999 138.279 126.877 149 128.302C149.994 128.252 150.498 129.223 151.137 129.804C141.41 139.991 131.442 149.944 121.665 160.088C117.909 152.595 114.459 144.946 110.561 137.524C111.619 137.957 112.677 138.389 113.735 138.829C113.259 138.148 112.79 137.482 112.322 136.801C109.957 133.398 107.685 129.939 105.364 126.515C106.01 123.963 106.734 121.425 107.245 118.838Z" fill="#F6FBFD"/>
<path d="M159.679 171.119C162.419 170.07 165.323 168.893 167.169 166.483C167.127 167.574 167.056 168.73 167.695 169.694C171.394 176.648 175.398 183.439 178.884 190.507C179.68 192.435 181.675 193.931 181.547 196.157C175.207 196.674 168.817 195.979 162.476 196.504C158.479 197.213 154.425 196.766 150.392 196.844C142.568 196.922 134.744 196.887 126.912 196.866C125.918 196.943 124.74 196.731 123.959 197.504C122.184 199.276 123.639 202.147 123.98 204.295C124.321 205.968 126.004 206.903 127.637 206.769C153.658 206.811 179.687 206.733 205.708 206.79L205.957 207.47C205.46 224.08 205.864 240.703 205.694 257.312C205.63 259.971 205.729 262.629 205.879 265.287C205.829 273.56 205.445 281.833 205.793 290.106C205.623 293.898 205.644 297.684 205.815 301.476C205.602 306.197 205.616 310.926 205.815 315.647C205.737 317.135 205.666 318.631 205.609 320.127C199.631 320.247 193.617 319.702 187.667 320.481C187.504 320.496 187.177 320.531 187.007 320.545C186.41 318.915 185.807 317.291 185.196 315.675C186.027 315.363 186.858 315.051 187.703 314.761C183.62 301.49 180.496 287.958 177.514 274.404C174.475 261.084 171.451 247.679 166.31 234.975C165.309 232.352 163.939 229.886 163.137 227.192C163.222 224.03 163.364 220.727 162.334 217.7C160.758 215.141 157.719 214.084 155.057 213.057C145.607 209.98 135.667 208.902 125.847 207.761C119.138 206.677 112.308 206.499 105.605 205.372C106.351 201.275 107.65 197.305 108.701 193.279C113.586 193.158 118.087 191.038 122.475 189.096C129.639 185.8 136.682 182.27 143.881 179.051C146.707 179.81 149.547 180.639 152.501 180.611C153.033 180.682 154.105 180.823 154.638 180.894C156.285 177.619 157.954 174.358 159.679 171.119Z" fill="#F6FBFD"/>
<path d="M293.5 126.65C297.951 125.793 302.637 124.765 306.06 121.561C308.197 125.984 309.965 130.585 312.13 135.001C309.084 136.546 305.776 137.879 302.318 137.943C301.083 138.092 300.259 137.043 299.357 136.412C298.562 133.009 297.611 129.628 296.304 126.388C295.601 126.459 294.203 126.587 293.5 126.65Z" fill="#F2A972"/>
<path d="M88.0044 122.311C88.3736 122.615 89.1262 123.239 89.5025 123.544C94.6287 127.726 99.6484 132.065 104.867 136.134C104.86 137.268 104.803 138.402 104.924 139.537C105.541 141.16 107.629 141.947 107.735 143.811C108.19 148.582 108.282 153.388 108.857 158.152C109.205 161.767 109.78 165.404 109.29 169.033C109.184 168.849 108.971 168.473 108.864 168.282C108.814 158.194 106.628 147.745 100.926 139.281C99.6981 141.21 98.8035 143.329 98.4272 145.598C93.2229 138.906 89.538 130.98 88.0612 122.615L88.0044 122.311Z" fill="#F16F12"/>
<path d="M105.982 136.212C105.889 132.972 104.952 129.754 105.364 126.514C107.686 129.938 109.958 133.398 112.322 136.8L112.514 137.871C111.64 137.63 110.767 137.382 109.901 137.141C109.922 137.36 109.972 137.807 110 138.027C108.807 137.141 107.558 136.134 105.982 136.212Z" fill="#F16F12"/>
<path d="M106.145 192.711C106.983 192.938 107.835 193.115 108.701 193.278C107.65 197.305 106.351 201.274 105.605 205.372C112.308 206.499 119.138 206.676 125.848 207.761C128.226 209.519 131.329 209.278 134.105 209.845C140.892 210.774 147.439 212.964 153.729 215.629C156.079 216.629 158.373 218.096 159.629 220.393C160.836 222.64 161.873 224.973 163.137 227.191C163.939 229.885 165.309 232.352 166.31 234.975C171.451 247.678 174.475 261.083 177.514 274.403C180.496 287.957 183.62 301.49 187.703 314.76C186.858 315.051 186.027 315.363 185.196 315.675C181.803 316.958 178.409 318.234 175.058 319.595C174.44 319.829 173.829 320.063 173.219 320.29C172.679 319.354 172.161 318.404 171.664 317.447C166.289 307.459 160.843 297.499 155.873 287.305C149.888 275.119 145.138 262.381 141.191 249.401C138.4 242.418 139.671 234.791 139.082 227.489C133.544 230.629 127.878 233.692 121.651 235.237C113.536 235.889 105.4 236.421 97.2559 236.308C99.9681 221.726 103.326 207.272 106.145 192.711Z" fill="#272D77"/>
<path d="M39.2274 324.429C42.1526 323.145 45.8375 325.669 45.5535 328.873C45.6458 332.198 41.3432 334.658 38.5955 332.623C35.3579 330.915 35.8052 325.662 39.2274 324.429Z" fill="#272D77"/>
<path d="M67.6487 324.414C70.5811 323.167 74.1879 325.669 73.9749 328.852C74.0033 332.17 69.7646 334.672 66.9813 332.623C63.7153 330.901 64.2194 325.655 67.6487 324.414Z" fill="#272D77"/>
<path d="M96.0273 324.379C98.9596 323.216 102.51 325.712 102.226 328.888C102.346 332.375 97.6887 334.75 94.9907 332.425C91.9661 330.553 92.6903 325.478 96.0273 324.379Z" fill="#272D77"/>
<path d="M314.054 324.394C317.001 323.182 320.572 325.67 320.316 328.874C320.423 332.426 315.673 334.793 312.989 332.362C310.057 330.441 310.816 325.564 314.054 324.394Z" fill="#272D77"/>
<path d="M342.39 324.4C345.067 323.308 348.219 325.265 348.624 328.065C349.306 331.609 344.754 334.849 341.716 332.652C338.386 331 338.883 325.534 342.39 324.4Z" fill="#272D77"/>
<path d="M370.783 324.386C373.978 323.053 377.755 326.229 376.946 329.575C376.435 332.73 372.217 334.587 369.711 332.389C366.701 330.497 367.482 325.506 370.783 324.386Z" fill="#272D77"/>
<path d="M86.9182 123.559L88.0613 122.616C89.5381 130.981 93.223 138.906 98.4273 145.598C98.8036 143.33 99.6982 141.21 100.926 139.282C106.628 147.746 108.815 158.195 108.864 168.283C102.68 159.422 97.9587 149.582 91.6539 140.785C89.7866 138.375 87.7205 135.305 84.3338 135.234C81.153 135.341 79.2005 138.354 77.6598 140.764C74.9973 145.145 73.2081 151.036 75.9487 155.792C80.5495 163.363 85.3065 170.863 90.5889 177.995C94.8702 183.68 99.4 189.805 106.145 192.711C103.326 207.272 99.968 221.726 97.2558 236.308C97.0996 237.102 96.9434 237.903 96.7872 238.704C92.8112 238.534 88.9346 237.555 85.0935 236.57C83.3043 236.031 81.5435 235.422 79.7827 234.812C69.9137 231.225 61.1736 225.043 53.7896 217.657C54.9469 214.488 56.2107 211.369 57.4958 208.264C63.8574 208.285 70.2119 208.314 76.5735 208.243C76.2398 206.109 75.5653 203.982 74.0033 202.423C70.4533 199.077 65.2987 200.438 60.9109 200.176C63.8574 193.243 66.6122 186.126 67.8192 178.654C69.4167 169.693 67.2299 160.535 68.9836 151.581C70.9148 140.253 78.5899 131.024 86.9182 123.559Z" fill="#FF7D21"/>
<path d="M151.138 129.805C151.748 129.089 152.43 128.437 153.296 128.047C154.624 129.996 156.669 131.407 159.139 130.904C159.842 131.797 158.884 132.761 158.628 133.619C152.579 146.074 146.338 158.692 137.286 169.283C129.845 171.232 122.248 172.459 114.7 173.884C115.212 170.438 116.894 167.177 116.852 163.668C115.858 157.459 114.317 151.298 111.889 145.478C110.909 143.104 110.192 140.601 110 138.028C109.972 137.808 109.922 137.362 109.901 137.142C110.767 137.383 111.64 137.631 112.514 137.872L112.322 136.802C112.791 137.482 113.259 138.149 113.735 138.829C112.677 138.39 111.619 137.957 110.561 137.525C114.459 144.947 117.91 152.596 121.666 160.089C131.442 149.944 141.411 139.992 151.138 129.805Z" fill="#F17720"/>
<path d="M176.215 134.186C176.84 134.186 178.103 134.179 178.728 134.172C174.347 142.274 170.308 150.561 165.984 158.699C164.77 159.883 163.413 160.918 161.986 161.833C166.8 152.653 171.493 143.416 176.215 134.186Z" fill="#140E41"/>
<path d="M77.6597 140.764C79.2004 138.353 81.1529 135.341 84.3337 135.234C87.7204 135.305 89.7865 138.375 91.6538 140.785C97.9586 149.582 102.68 159.422 108.864 168.283C108.971 168.474 109.184 168.85 109.29 169.034C110.277 170.941 111.285 172.848 112.656 174.521C113.33 174.294 114.012 174.081 114.7 173.883C122.248 172.458 129.845 171.232 137.286 169.282C140.743 168.885 144.13 168.098 147.538 167.382L147.794 167.95C148.745 170.353 150.158 172.529 151.926 174.422C152.025 174.684 152.217 175.194 152.309 175.457C149.462 176.555 146.658 177.782 143.881 179.051C136.682 182.269 129.639 185.799 122.475 189.096C118.087 191.038 113.586 193.158 108.701 193.278C107.835 193.115 106.983 192.938 106.145 192.711C99.3999 189.805 94.8701 183.68 90.5888 177.995C85.3064 170.863 80.5494 163.363 75.9486 155.792C73.208 151.035 74.9972 145.145 77.6597 140.764Z" fill="#E16914"/>
<path d="M302.318 137.943C305.775 137.879 309.084 136.546 312.13 135.001C319.4 139.885 326.607 145.138 332.521 151.639C333.046 152.865 333.593 154.091 334.147 155.318C333.196 156.821 333.309 158.742 332.223 160.166C330.81 162.109 329.312 163.995 327.885 165.923C331.839 169.85 335.901 173.671 339.905 177.556C339.813 172.225 339.181 166.929 339.039 161.613C339.202 161.329 339.529 160.769 339.692 160.486C344.811 168.134 348.787 176.45 353.196 184.503L352.344 184.843C348.816 186.254 345.187 187.416 341.574 188.579C341.169 188.664 340.345 188.827 339.941 188.912C335.475 182.617 330.888 176.4 326.543 170.02C326.869 170.736 327.21 171.459 327.544 172.189C327.615 173.316 327.572 174.5 328.013 175.578C329.788 180.632 332.074 185.545 333.16 190.819C325.655 192.704 317.867 192.889 310.17 192.605C304.448 187.232 298.32 182.192 293.478 175.961C296.73 175.677 300.06 176.336 303.241 175.429C299.804 174.486 295.871 174.67 292.974 172.317C290.915 170.892 289.751 168.609 288.806 166.362C288.316 163.342 289.083 160.301 289.9 157.409C291.838 150.88 294.742 144.699 297.66 138.56C298.008 137.688 298.69 137.043 299.357 136.412C300.259 137.043 301.082 138.092 302.318 137.943Z" fill="#013551"/>
<path d="M104.867 136.136L105.981 136.214C107.558 136.136 108.807 137.143 110 138.029C110.192 140.602 110.909 143.104 111.889 145.479C114.317 151.299 115.857 157.459 116.851 163.669C116.894 167.178 115.211 170.439 114.7 173.884C114.011 174.083 113.33 174.295 112.655 174.522C111.285 172.849 110.277 170.942 109.29 169.035C109.78 165.406 109.205 161.769 108.857 158.154C108.282 153.39 108.189 148.584 107.735 143.813C107.629 141.949 105.541 141.162 104.923 139.539C104.803 138.404 104.86 137.27 104.867 136.136Z" fill="#AA4700"/>
<path d="M317.845 199.148C319.869 199.212 321.892 199.261 323.923 199.311C326.77 199.545 329.631 199.616 332.493 199.637C336.057 200.098 339.649 200.048 343.242 200.204C342.106 200.693 341.006 201.26 339.969 201.92C338.08 203.5 337.015 205.833 336.809 208.264C340.501 208.271 344.201 208.257 347.893 208.292C350.818 213.694 354.332 219.103 354.985 225.348C355.404 229.566 352.337 233.203 348.631 234.776C346.764 235.521 344.818 236.251 342.781 236.18C337.96 236.095 333.146 236.109 328.325 236.031C318.47 235.811 308.608 235.854 298.753 235.748C297.83 235.783 297 235.379 296.226 234.932C287.685 228.361 279.086 221.861 270.538 215.303C270.169 214.998 269.438 214.403 269.068 214.105C276.431 211.525 283.907 209.207 291.54 207.576C292.797 207.321 294.046 207.016 295.274 206.634C302.133 204.585 309.155 203.032 315.864 200.48C316.582 200.126 317.242 199.679 317.845 199.148Z" fill="#013551"/>
<path d="M15.897 157.756C18.0483 154.233 16.6212 149.902 17.1324 146.01C17.3667 146.896 17.6009 147.789 17.8352 148.682C19.0706 148.824 20.306 148.98 21.5414 149.136C22.6561 152.602 21.8894 156.374 23.2525 159.762C23.5791 163.888 23.3732 168.028 23.4016 172.161C23.3164 182.241 23.4797 192.321 23.0395 202.395C21.0373 202.345 19.0423 202.607 17.0543 202.792C17.033 205.046 17.04 207.371 16.0247 209.448C15.7265 203.415 15.9396 197.376 15.8402 191.336C15.897 180.143 15.5988 168.942 15.897 157.756Z" fill="#C8CFD8"/>
<path d="M391.203 148.895C392.971 148.682 394.753 148.668 396.535 148.845C396.549 150.88 396.798 152.907 397.444 154.842C397.955 160.669 397.664 166.603 397.529 172.465C397.117 171.494 396.677 170.537 396.251 169.58C394.575 169.452 392.9 169.424 391.224 169.481C390.89 172.869 391.842 176.506 390.188 179.653C389.996 173.748 389.904 167.829 390.166 161.931C391.984 157.827 390.443 153.212 391.203 148.895Z" fill="#C2C9D3"/>
<path d="M288.807 166.362C289.751 168.609 290.915 170.892 292.974 172.317C295.871 174.67 299.805 174.486 303.241 175.429C300.06 176.336 296.73 175.677 293.478 175.961C291.292 173.125 289.46 169.921 288.807 166.362Z" fill="#240C2D"/>
<path d="M391.224 169.481C392.9 169.424 394.575 169.453 396.251 169.58C396.677 170.537 397.117 171.494 397.529 172.465C397.955 180.625 397.543 188.841 397.664 197.021C397.536 201.112 397.905 205.216 397.415 209.292C397.075 208.094 396.684 206.917 396.315 205.748C395.143 205.556 393.979 205.372 392.829 205.166C391.934 204.231 391.04 203.252 389.818 202.756L389.861 202.09C390.472 194.625 389.676 187.125 390.188 179.654C391.842 176.506 390.89 172.869 391.224 169.481Z" fill="#CDD3DB"/>
<path d="M156.718 172.132C157.705 171.799 158.699 171.473 159.679 171.118C157.954 174.358 156.285 177.619 154.638 180.894C154.106 180.823 153.033 180.681 152.501 180.61C153.736 177.704 155.348 174.975 156.718 172.132Z" fill="#17123D"/>
<path d="M134.041 319.099L134.495 319.163C138.464 319.893 142.476 320.672 146.523 320.034C152.189 324.437 158.728 327.449 165.16 330.533C166.708 330.873 166.318 332.405 166.147 333.574C160.368 332.972 154.666 331.802 148.894 331.164C146.594 330.923 145.508 328.18 143.122 328.045C141.752 327.846 141.02 329.236 140.459 330.228C137.421 329.619 134.346 329.243 131.336 328.499C132.202 325.351 133.296 322.275 134.041 319.099Z" fill="#17123D"/>
<path d="M327.544 172.188C331.172 177.966 334.864 183.708 338.265 189.627C336.561 190.031 334.85 190.4 333.161 190.818C332.074 185.544 329.788 180.631 328.013 175.577C327.573 174.499 327.615 173.316 327.544 172.188Z" fill="#270C33"/>
<path d="M294.827 297.236C296.51 297.094 298.413 296.988 299.684 298.328C299.35 307.068 295.75 315.143 292.96 323.295C288.558 325.585 282.999 325.776 278.497 323.656C279.619 321.714 281.316 320.24 283.19 319.056L283.716 319.176C285.91 319.892 288.246 319.949 290.454 319.233C292.91 312.151 294.82 304.772 294.827 297.236Z" fill="#270C33"/>
<path d="M235.138 326.981C240.896 327.116 246.455 325.343 251.596 322.884C253.285 324.188 253.924 326.3 253.64 328.37C248.585 329.902 243.551 331.546 238.354 332.532C235.294 332.964 232.205 332.503 229.131 332.489C229.245 332.078 229.479 331.256 229.593 330.844C230.778 328.222 233.064 326.393 235.223 324.592C235.202 325.187 235.159 326.386 235.138 326.981Z" fill="#270C33"/>
<path d="M286.087 192.859L286.499 192.427C291.689 194.972 297.106 197.375 302.992 197.609C309.979 197.828 317.1 197.481 323.923 199.31C321.893 199.26 319.869 199.211 317.846 199.147C311.534 198.75 305.144 199.395 298.896 198.197C297.518 197.885 296.155 197.531 294.785 197.233C291.59 196.311 288.771 194.511 285.683 193.334L286.087 192.859Z" fill="#E39C66"/>
<path d="M254.634 273.545C258.788 258.169 261.848 242.418 267.734 227.581C268.607 231.742 268.891 235.995 269.551 240.192C270.986 249.57 273.222 258.793 275.601 267.966C270.922 279.23 264.567 289.679 259.008 300.511C256.168 305.963 253.172 311.329 250.389 316.809C250.197 318.864 251.12 320.885 251.596 322.884C246.455 325.344 240.896 327.116 235.138 326.981C235.159 326.386 235.202 325.188 235.223 324.592C235.564 324.287 236.252 323.685 236.6 323.387C236.87 323.153 237.41 322.692 237.68 322.458C240.179 319.672 244.829 318.29 245.035 314.008C248.166 300.504 250.815 286.879 254.634 273.545Z" fill="#E39C66"/>
<path d="M135.532 315C138.89 315.333 142.227 315.794 145.571 316.22C145.862 317.495 146.182 318.764 146.522 320.033C142.476 320.671 138.464 319.891 134.495 319.161C134.729 317.744 135.07 316.354 135.532 315Z" fill="#E39C66"/>
<path d="M175.057 319.594C178.409 318.233 181.802 316.957 185.196 315.674C185.807 317.29 186.41 318.913 187.007 320.544C183.066 321.55 178.998 321.784 174.958 321.274C174.979 320.856 175.029 320.012 175.057 319.594Z" fill="#E39C66"/>
<path d="M348.376 198.928C349.76 198.624 351.059 197.738 352.529 197.971C351.933 198.383 350.726 199.205 350.122 199.616C347.879 200.219 345.543 200.254 343.242 200.204C339.65 200.049 336.057 200.098 332.493 199.637C337.747 198.751 343.122 199.893 348.376 198.928Z" fill="#D59A6A"/>
<path d="M297.674 198.545C297.98 198.46 298.59 198.282 298.896 198.197C305.144 199.395 311.534 198.75 317.846 199.147C317.242 199.679 316.582 200.125 315.865 200.48C309.155 203.032 302.133 204.584 295.275 206.633C295.516 204.882 295.729 203.131 296.034 201.394C296.276 201.267 296.759 201.019 297 200.891C297.22 200.111 297.447 199.324 297.674 198.545Z" fill="#F7FBFE"/>
<path d="M343.242 200.204C345.543 200.253 347.879 200.218 350.122 199.615C352.572 200.459 355.177 200.133 357.719 200.161C366.474 200.154 375.235 200.161 383.989 200.147C386.133 200.012 388.143 200.877 389.861 202.089L389.818 202.756C376.279 202.571 362.732 202.663 349.192 202.628C346.111 202.607 342.909 203.146 339.969 201.919C341.006 201.26 342.106 200.693 343.242 200.204Z" fill="#BDC4CC"/>
<path d="M23.0393 202.394C24.7859 201.196 26.7171 200.033 28.9252 200.161C39.5894 200.154 50.2536 200.125 60.9107 200.175C65.2985 200.437 70.4531 199.076 74.0031 202.422C59.0008 202.982 43.9701 202.415 28.9607 202.706C26.9798 202.777 25.006 202.599 23.0393 202.394Z" fill="#BEC4CC"/>
<path d="M124.129 201.26C165.295 201.182 206.461 201.253 247.627 201.225C263.765 201.338 279.903 201.012 296.035 201.395C295.729 203.132 295.516 204.882 295.275 206.633C294.046 207.016 292.797 207.321 291.54 207.576C289.417 206.314 286.883 206.846 284.547 206.768C261.081 206.782 237.609 206.754 214.143 206.782C214.108 213.084 214.2 219.393 214.101 225.695C211.111 219.748 208.896 213.446 205.957 207.47L205.708 206.789C179.687 206.733 153.658 206.811 127.637 206.768C126.004 206.903 124.321 205.967 123.98 204.294C124.009 203.28 124.058 202.267 124.129 201.26Z" fill="#A5AEBD"/>
<path d="M45.9867 208.285C47.7475 208.243 49.5154 208.257 51.2762 208.328C49.6929 211.355 48.0599 214.389 46.0435 217.153C45.866 214.197 45.9228 211.241 45.9867 208.285Z" fill="#A5AEBD"/>
<path d="M296.226 234.931C297 235.378 297.831 235.782 298.754 235.747C308.609 235.853 318.471 235.811 328.325 236.03C328.971 239.093 331.08 241.482 333.878 242.814C320.984 242.743 308.09 242.807 295.204 242.772C291.625 242.992 288.48 240.121 287.813 236.711C289.645 236.342 291.469 235.952 293.294 235.562C294.274 235.364 295.246 235.144 296.226 234.931Z" fill="#A5AEBD"/>
<path d="M97.2559 236.307C105.4 236.421 113.536 235.889 121.651 235.237C123.022 235.393 124.378 235.62 125.748 235.839C125.209 239.462 122.283 242.85 118.407 242.744C105.329 242.843 92.2433 242.673 79.158 242.829C82.0335 241.759 84.0996 239.434 85.0936 236.57C88.9347 237.555 92.8113 238.533 96.7873 238.703C96.9435 237.902 97.0997 237.101 97.2559 236.307Z" fill="#A5AEBD"/>
<path d="M66.0728 243.354C68.1459 242.262 70.5599 242.808 72.7964 242.737C72.7964 244.509 72.7822 246.281 72.7822 248.061C72.6828 252.52 73.0449 256.993 72.5976 261.43C70.4392 256.014 69.0831 250.308 66.7331 244.956C66.5698 244.559 66.2361 243.758 66.0728 243.354Z" fill="#A5AEBD"/>
<path d="M340.544 242.815C342.753 242.787 344.961 242.773 347.169 242.808C347.126 248.947 347.368 255.1 347.048 261.232C344.698 255.462 343.058 249.436 340.836 243.623L340.544 242.815Z" fill="#A5AEBD"/>
<path d="M310.256 324.543C310.803 321.828 312.514 318.227 315.78 318.397C324.094 318.404 332.408 318.397 340.722 318.411C340.694 318.78 340.63 319.517 340.594 319.886C332.103 319.921 323.604 319.794 315.112 319.921C312.933 319.886 312.13 322.204 311.243 323.77C310.994 323.962 310.504 324.352 310.256 324.543Z" fill="#A5AEBD"/>
<path d="M347.119 318.453C355.362 318.311 363.619 318.467 371.87 318.375C373.311 318.333 374.788 318.396 376.13 319.02L375.555 319.885C366.033 319.892 356.498 319.85 346.977 319.878C347.013 319.523 347.084 318.807 347.119 318.453Z" fill="#A5AEBD"/>
<path d="M214.143 206.782C237.609 206.754 261.081 206.782 284.547 206.768C286.883 206.846 289.417 206.315 291.54 207.576C283.908 209.207 276.431 211.525 269.069 214.105C269.438 214.403 270.169 214.998 270.538 215.303C269.516 216.267 268.508 217.253 267.514 218.238C267.606 221.35 267.989 224.462 267.734 227.581C261.848 242.418 258.788 258.17 254.634 273.545C250.815 286.88 248.166 300.505 245.035 314.009C244.829 318.291 240.179 319.673 237.68 322.459C235.812 321.062 233.611 320.155 231.261 320.155C225.56 319.956 219.844 320.176 214.143 320.077C214.108 312.662 214.044 305.261 214.029 297.853C214.313 289.368 214.065 280.875 213.987 272.39C214.25 256.83 213.873 241.263 214.1 225.696C214.2 219.393 214.108 213.084 214.143 206.782Z" fill="#FAFCFE"/>
<path d="M125.847 207.761C135.667 208.902 145.607 209.98 155.057 213.056C157.719 214.084 160.758 215.14 162.334 217.699C163.364 220.726 163.222 224.03 163.137 227.191C161.873 224.973 160.836 222.64 159.629 220.393C158.372 218.096 156.079 216.629 153.729 215.629C147.438 212.964 140.892 210.774 134.105 209.845C131.329 209.278 128.226 209.519 125.847 207.761Z" fill="#1B1448"/>
<path d="M121.651 235.237C127.878 233.692 133.544 230.63 139.082 227.489C139.671 234.791 138.4 242.418 141.191 249.401C145.138 262.381 149.888 275.119 155.873 287.305C154.29 295.706 152.813 304.134 150.761 312.442C150.428 313.832 150.073 315.214 149.803 316.618C148.383 316.589 146.97 316.419 145.571 316.221C142.227 315.796 138.89 315.335 135.532 315.002C134.424 314.888 133.317 314.81 132.209 314.746C132.181 308.019 132.33 301.277 132.713 294.557C133.466 279.252 134.069 263.869 136.895 248.77C137.278 246.133 138.052 243.553 138.265 240.901C138.052 238.761 137.108 236.783 136.441 234.762C131.506 234.748 126.579 235.025 121.651 235.237Z" fill="#1B1448"/>
<path d="M187.007 320.545C187.177 320.531 187.504 320.496 187.667 320.482C188.718 321.127 189.762 321.786 190.869 322.346C196.485 324.94 202.527 326.394 208.399 328.315C208.399 328.832 208.406 329.874 208.413 330.392V330.768C203.252 330.76 198.083 330.824 192.921 330.881C191.409 330.867 189.719 331.172 188.484 330.087C187.284 329.222 185.8 329.01 184.401 328.676C183.869 329.321 183.329 329.981 182.924 330.725L182.591 331.448C179.531 331.391 176.478 331.299 173.425 331.257C173.865 327.925 174.142 324.565 174.823 321.268L174.958 321.276C178.998 321.786 183.066 321.552 187.007 320.545Z" fill="#1B1448"/>
<path d="M361.93 208.278C363.825 208.278 365.721 208.271 367.617 208.257C367.624 211.454 367.595 214.644 367.553 217.841C365.87 214.772 364.046 211.78 362.185 208.817L361.93 208.278Z" fill="#A4ADBC"/>
<path d="M280.968 233.904C285.044 234.677 289.147 235.308 293.294 235.563C291.469 235.953 289.644 236.343 287.813 236.711C286.442 236.981 285.065 237.215 283.695 237.456C282.836 236.229 281.891 235.074 280.968 233.904Z" fill="#E29A64"/>
<path d="M121.652 235.237C126.579 235.025 131.506 234.748 136.441 234.762C137.108 236.783 138.053 238.76 138.266 240.901C138.053 243.552 137.279 246.133 136.895 248.77C134.069 263.869 133.466 279.252 132.713 294.557C131.62 296.613 131.776 298.973 131.719 301.228C128.929 300.051 126.955 297.57 124.534 295.819C119.671 292.168 115.957 287.333 111.996 282.797C103.71 272.943 95.8714 262.423 85.2995 254.859C81.4087 252.08 77.0067 250.23 72.7822 248.061C72.7822 246.282 72.7964 244.509 72.7964 242.737C74.9193 242.773 77.0351 242.872 79.158 242.829C92.2433 242.673 105.329 242.844 118.407 242.744C122.283 242.851 125.209 239.462 125.748 235.84C124.378 235.62 123.022 235.393 121.652 235.237Z" fill="#EFF8FD"/>
<path d="M213.263 260.829C213.419 264.685 213.298 268.57 213.987 272.391C214.065 280.876 214.313 289.369 214.029 297.854C213.845 296.975 213.66 296.103 213.483 295.232C213.802 291.283 213.674 287.313 213.199 283.386C212.893 285.009 212.68 286.64 212.503 288.284C210.877 288.327 209.258 288.32 207.646 288.214C207.327 287.342 207.022 286.477 206.709 285.612C206.39 287.101 206.049 288.596 205.793 290.106C205.445 281.834 205.829 273.561 205.879 265.288C206.141 264.352 206.432 263.438 206.716 262.523C207.483 265.444 210.614 263.785 212.609 263.452C212.822 262.573 213.042 261.701 213.263 260.829Z" fill="#C9CFD8"/>
<path d="M66.5339 279.649C66.896 280.911 67.2865 282.166 67.6628 283.435C68.813 283.463 69.9632 283.47 71.1205 283.449C71.5039 282.166 71.9228 280.897 72.3275 279.621C72.789 284.03 72.8884 288.574 72.4695 292.969C71.9867 294.21 71.5039 295.451 71.0424 296.705C69.9135 296.911 68.7917 297.124 67.6699 297.343C67.4498 295.84 67.0451 294.373 66.4558 292.977C65.9446 288.596 66.1718 284.059 66.5339 279.649Z" fill="#CAD1D9"/>
<path d="M342.419 283.86C344.329 283.747 346.104 282.981 347.09 281.266C347.14 283.832 347.417 286.426 347.019 288.978C346.544 290.176 346.061 291.389 345.337 292.466C344.414 292.984 343.32 292.984 342.312 293.196C342.149 292.757 341.822 291.885 341.659 291.445C341.417 293.359 341.119 295.273 340.857 297.194C340.502 293.912 340.502 290.588 340.857 287.312C341.105 285.611 341.339 283.903 341.545 282.201C341.829 282.754 342.12 283.3 342.419 283.86Z" fill="#CCD3DB"/>
<path d="M212.503 288.283C212.68 286.639 212.893 285.008 213.199 283.385C213.674 287.312 213.802 291.282 213.483 295.23C213.128 296.726 212.78 298.222 212.482 299.732C210.316 299.966 207.533 300.469 206.667 297.889C206.376 299.08 206.077 300.271 205.815 301.476C205.644 297.683 205.623 293.898 205.793 290.105C206.049 288.595 206.39 287.099 206.709 285.611C207.022 286.476 207.327 287.34 207.646 288.212C209.258 288.319 210.877 288.326 212.503 288.283Z" fill="#BBC2CE"/>
<path d="M155.873 287.305C160.843 297.498 166.289 307.458 171.664 317.447C171.103 317.893 170.684 319.112 169.782 318.694C164.869 317.028 159.871 315.568 155.128 313.441C153.757 312.796 152.245 312.598 150.761 312.442C152.813 304.134 154.29 295.705 155.873 287.305Z" fill="#F1F8FD"/>
<path d="M345.337 292.465C346.061 291.388 346.544 290.176 347.019 288.978C347.183 294.826 347.367 300.731 347.019 306.558C346.402 308.238 345.763 309.911 345.223 311.627C344.35 311.634 343.484 311.655 342.625 311.655C342.22 310.733 341.836 309.805 341.446 308.883C341.205 311.853 341.098 314.831 340.779 317.787C340.402 310.939 340.601 304.049 340.857 297.194C341.119 295.272 341.418 293.358 341.659 291.444C341.822 291.884 342.149 292.756 342.312 293.195C343.32 292.983 344.414 292.983 345.337 292.465Z" fill="#BAC2CD"/>
<path d="M66.456 292.976C67.0453 294.372 67.45 295.84 67.6701 297.343C68.7919 297.123 69.9137 296.91 71.0426 296.705C71.5041 295.45 71.9869 294.209 72.4697 292.969C72.704 296.031 73.0093 299.186 72.4981 302.22C71.9088 303.694 71.4544 305.225 71.1775 306.799C70.0131 306.842 68.8558 306.863 67.6985 306.87C67.4216 305.289 66.9743 303.751 66.4063 302.262C65.9164 299.214 66.1791 296.045 66.456 292.976Z" fill="#BCC3CE"/>
<path d="M212.482 299.732C212.78 298.222 213.128 296.726 213.483 295.23C213.66 296.102 213.845 296.974 214.029 297.853C214.044 305.261 214.107 312.662 214.143 320.077L213.703 320.049C213.355 316.348 213.88 312.591 213.149 308.926C212.886 310.564 212.709 312.215 212.553 313.874C210.87 313.924 209.187 313.91 207.512 313.839C207.242 312.69 206.979 311.542 206.716 310.401C206.447 312.152 206.113 313.895 205.815 315.646C205.616 310.925 205.602 306.197 205.815 301.476C206.077 300.271 206.376 299.08 206.667 297.889C207.533 300.469 210.316 299.966 212.482 299.732Z" fill="#B0B9C6"/>
<path d="M66.4062 302.262C66.9742 303.751 67.4216 305.289 67.6985 306.87C68.8558 306.863 70.013 306.842 71.1774 306.799C71.4543 305.225 71.9087 303.694 72.498 302.22C72.853 307.48 72.782 312.768 72.6826 318.042C74.6209 318.567 76.6373 318.319 78.6182 318.347C85.5052 318.361 92.3851 318.333 99.2721 318.354C100.621 318.205 101.757 319.155 102.233 320.36V321.19C99.9253 319.396 96.9504 319.914 94.2382 319.892C76.5024 319.935 58.7737 319.871 41.0451 319.914C39.121 319.814 38.0489 321.707 36.7567 322.813L36.4727 321.856C37.5448 320.303 38.8299 318.226 40.9954 318.354C49.3521 318.333 57.7088 318.361 66.0655 318.354C66.3637 312.995 65.9305 307.607 66.4062 302.262Z" fill="#ADB5C3"/>
<path d="M345.223 311.626C345.763 309.911 346.402 308.238 347.019 306.558C347.275 310.513 347.232 314.49 347.119 318.453C347.083 318.807 347.012 319.523 346.977 319.878C344.847 319.892 342.717 319.892 340.594 319.885C340.629 319.516 340.693 318.779 340.722 318.41L340.779 317.786C341.098 314.83 341.205 311.853 341.446 308.883C341.837 309.804 342.22 310.733 342.625 311.655C343.484 311.655 344.35 311.633 345.223 311.626Z" fill="#A9B1C0"/>
<path d="M213.149 308.926C213.88 312.591 213.355 316.348 213.703 320.048L214.143 320.077C219.844 320.176 225.56 319.956 231.261 320.155C233.611 320.155 235.812 321.062 237.679 322.458C237.41 322.692 236.87 323.153 236.6 323.387C234.662 322.678 232.695 321.934 230.601 322.005C219.468 321.941 208.335 322.04 197.202 321.983C195.086 321.948 192.928 321.728 190.869 322.345C189.761 321.785 188.718 321.126 187.667 320.481C193.617 319.701 199.63 320.247 205.609 320.126C205.666 318.63 205.737 317.135 205.815 315.646C206.113 313.895 206.447 312.151 206.716 310.4C206.979 311.542 207.242 312.69 207.511 313.838C209.187 313.909 210.87 313.923 212.553 313.874C212.709 312.215 212.886 310.563 213.149 308.926Z" fill="#A7B0BF"/>
<path d="M182.924 330.724C183.329 329.979 183.869 329.32 184.401 328.675C185.8 329.008 187.284 329.221 188.484 330.086C186.836 331.206 184.777 330.674 182.924 330.724Z" fill="#DBE2E6"/>
</svg>
