<svg width="26" height="26" viewBox="0 0 26 26" fill="none" xmlns="http://www.w3.org/2000/svg">
<g clip-path="url(#clip0_1_669)">
<path d="M13 3.74508C12.5515 3.74508 12.1875 3.38108 12.1875 2.93258V0.8125C12.1875 0.364 12.5515 0 13 0C13.4485 0 13.8125 0.364 13.8125 0.8125V2.93258C13.8125 3.38108 13.4485 3.74508 13 3.74508Z" fill="#FB7C00" fill-opacity="0.52"/>
<path d="M20.1186 6.69421C19.9106 6.69421 19.7026 6.61513 19.5445 6.45588C19.227 6.13846 19.227 5.62387 19.5445 5.30646L21.0438 3.80712C21.3612 3.48971 21.8758 3.48971 22.1932 3.80712C22.5106 4.12454 22.5106 4.63912 22.1932 4.95654L20.6939 6.45588C20.5346 6.61404 20.3266 6.69421 20.1186 6.69421Z" fill="#FB7C00" fill-opacity="0.52"/>
<path d="M25.1875 13.8125H23.0674C22.6189 13.8125 22.2549 13.4485 22.2549 13C22.2549 12.5515 22.6189 12.1875 23.0674 12.1875H25.1875C25.636 12.1875 25.9999 12.5515 25.9999 13C25.9999 13.4485 25.636 13.8125 25.1875 13.8125Z" fill="#FB7C00" fill-opacity="0.52"/>
<path d="M21.618 22.4309C21.41 22.4309 21.202 22.3519 21.0438 22.1926L19.5445 20.6933C19.227 20.3758 19.227 19.8613 19.5445 19.5438C19.8619 19.2264 20.3765 19.2264 20.6939 19.5438L22.1932 21.0432C22.5106 21.3606 22.5106 21.8752 22.1932 22.1926C22.034 22.3519 21.826 22.4309 21.618 22.4309Z" fill="#FB7C00" fill-opacity="0.52"/>
<path d="M4.38205 22.4309C4.17405 22.4309 3.96605 22.3519 3.80789 22.1926C3.49047 21.8752 3.49047 21.3606 3.80789 21.0432L5.30722 19.5438C5.62464 19.2264 6.13922 19.2264 6.45664 19.5438C6.77406 19.8613 6.77406 20.3758 6.45664 20.6933L4.9573 22.1926C4.79805 22.3519 4.59005 22.4309 4.38205 22.4309Z" fill="#FB7C00" fill-opacity="0.52"/>
<path d="M2.93258 13.8125H0.8125C0.364 13.8125 0 13.4485 0 13C0 12.5515 0.364 12.1875 0.8125 12.1875H2.93258C3.38108 12.1875 3.74508 12.5515 3.74508 13C3.74508 13.4485 3.38108 13.8125 2.93258 13.8125Z" fill="#FB7C00" fill-opacity="0.52"/>
<path d="M5.88139 6.69421C5.67339 6.69421 5.46539 6.61513 5.30722 6.45588L3.80789 4.95654C3.49047 4.63912 3.49047 4.12454 3.80789 3.80712C4.1253 3.48971 4.63989 3.48971 4.9573 3.80712L6.45664 5.30646C6.77406 5.62387 6.77406 6.13846 6.45664 6.45588C6.2963 6.61404 6.08939 6.69421 5.88139 6.69421Z" fill="#FB7C00" fill-opacity="0.52"/>
<path d="M16.25 22.75V24.1042C16.25 25.1442 15.3942 26 14.3542 26H11.6458C10.7358 26 9.75 25.3067 9.75 23.79V22.75H16.25Z" fill="#FB7C00" fill-opacity="0.52"/>
<path d="M17.7775 7.10703C16.0008 5.6662 13.6608 5.10287 11.375 5.59037C8.50418 6.1862 6.17501 8.5262 5.57918 11.397C4.97251 14.3437 6.07751 17.2687 8.43918 19.0562C9.07834 19.5329 9.52251 20.2695 9.67418 21.1254V21.1362C9.69584 21.1254 9.72834 21.1254 9.75001 21.1254H16.25C16.2717 21.1254 16.2825 21.1254 16.3042 21.1362V21.1254C16.4558 20.302 16.9433 19.5437 17.6908 18.9587C19.5217 17.507 20.5833 15.3404 20.5833 13.0004C20.5833 10.7037 19.565 8.5587 17.7775 7.10703ZM17.0625 13.542C16.6183 13.542 16.25 13.1737 16.25 12.7295C16.25 11.0829 14.9175 9.75037 13.2708 9.75037C12.8267 9.75037 12.4583 9.38203 12.4583 8.93787C12.4583 8.4937 12.8267 8.12537 13.2708 8.12537C15.8058 8.12537 17.875 10.1945 17.875 12.7295C17.875 13.1737 17.5067 13.542 17.0625 13.542Z" fill="#FB7C00" fill-opacity="0.52"/>
<path d="M9.67407 21.125H9.74991C9.72824 21.125 9.69574 21.125 9.67407 21.1333V21.125Z" fill="#FB7C00" fill-opacity="0.52"/>
<path d="M16.3042 21.125V21.1333C16.2825 21.125 16.2717 21.125 16.25 21.125H16.3042Z" fill="#FB7C00" fill-opacity="0.52"/>
</g>
<defs>
<clipPath id="clip0_1_669">
<rect width="26" height="26" fill="white"/>
</clipPath>
</defs>
</svg>
