<svg width="26" height="26" viewBox="0 0 26 26" fill="none" xmlns="http://www.w3.org/2000/svg">
<g clip-path="url(#clip0_1_681)">
<path d="M14.625 11.375V0C16.1654 0 17.638 0.300456 19.043 0.901367C20.4479 1.50228 21.6582 2.31055 22.6738 3.32617C23.6895 4.3418 24.4977 5.55208 25.0986 6.95703C25.6995 8.36198 26 9.83464 26 11.375H14.625ZM11.375 26C9.83464 26 8.36198 25.6995 6.95703 25.0986C5.55208 24.4977 4.3418 23.6895 3.32617 22.6738C2.31055 21.6582 1.50228 20.4479 0.901367 19.043C0.300456 17.638 0 16.1654 0 14.625C0 13.0846 0.300456 11.612 0.901367 10.207C1.50228 8.80208 2.31055 7.5918 3.32617 6.57617C4.3418 5.56055 5.55208 4.75228 6.95703 4.15137C8.36198 3.55046 9.83464 3.25 11.375 3.25V14.625H22.75C22.75 16.1654 22.4495 17.638 21.8486 19.043C21.2477 20.4479 20.4395 21.6582 19.4238 22.6738C18.4082 23.6895 17.1979 24.4977 15.793 25.0986C14.388 25.6995 12.9154 26 11.375 26Z" fill="#FB7C00" fill-opacity="0.52"/>
</g>
<defs>
<clipPath id="clip0_1_681">
<rect width="26" height="26" fill="white"/>
</clipPath>
</defs>
</svg>
