<svg width="22" height="24" viewBox="0 0 22 24" fill="none" xmlns="http://www.w3.org/2000/svg">
<path d="M11.0127 8.91814C10.2536 8.91814 9.54262 9.21267 9.00434 9.75095C8.4686 10.2892 8.17153 11.0002 8.17153 11.7593C8.17153 12.5185 8.4686 13.2295 9.00434 13.7677C9.54262 14.3035 10.2536 14.6006 11.0127 14.6006C11.7719 14.6006 12.4829 14.3035 13.0211 13.7677C13.5569 13.2295 13.854 12.5185 13.854 11.7593C13.854 11.0002 13.5569 10.2892 13.0211 9.75095C12.7582 9.48602 12.4453 9.27596 12.1005 9.133C11.7557 8.99003 11.386 8.917 11.0127 8.91814ZM21.4813 14.8976L19.8207 13.4783C19.8995 12.9959 19.9401 12.5033 19.9401 12.0133C19.9401 11.5232 19.8995 11.0281 19.8207 10.5482L21.4813 9.12888C21.6067 9.02149 21.6965 8.87847 21.7387 8.71882C21.7809 8.55917 21.7735 8.39046 21.7174 8.23513L21.6946 8.16911C21.2376 6.89118 20.5528 5.70662 19.6735 4.67283L19.6278 4.61951C19.521 4.49395 19.3787 4.4037 19.2196 4.36064C19.0605 4.31758 18.8921 4.32374 18.7366 4.37829L16.6748 5.11208C15.9131 4.48747 15.0651 3.9949 14.1459 3.65212L13.7473 1.49646C13.7172 1.33407 13.6385 1.18467 13.5215 1.06811C13.4044 0.95156 13.2547 0.873366 13.0922 0.843921L13.0237 0.831226C11.7034 0.592554 10.312 0.592554 8.99164 0.831226L8.92309 0.843921C8.76058 0.873366 8.61088 0.95156 8.49387 1.06811C8.37686 1.18467 8.29809 1.33407 8.26801 1.49646L7.86684 3.66228C6.9564 4.00778 6.10827 4.49917 5.35571 5.11716L3.27875 4.37829C3.12328 4.3233 2.95475 4.31693 2.79556 4.36001C2.63637 4.4031 2.49406 4.4936 2.38754 4.61951L2.34184 4.67283C1.46407 5.70772 0.779482 6.89199 0.320746 8.16911L0.297894 8.23513C0.183637 8.55251 0.277582 8.90798 0.534027 9.12888L2.21489 10.5634C2.13618 11.0408 2.09809 11.5283 2.09809 12.0107C2.09809 12.4982 2.13618 12.9857 2.21489 13.458L0.539105 14.8925C0.413665 14.9999 0.323885 15.143 0.281705 15.3026C0.239525 15.4623 0.246943 15.631 0.302972 15.7863L0.325824 15.8523C0.785394 17.1295 1.46332 18.3101 2.34692 19.3486L2.39262 19.4019C2.4994 19.5275 2.64171 19.6177 2.80081 19.6608C2.9599 19.7038 3.12831 19.6977 3.28383 19.6431L5.36079 18.9043C6.11743 19.5263 6.96039 20.0189 7.87192 20.3591L8.27309 22.525C8.30317 22.6874 8.38194 22.8368 8.49895 22.9533C8.61596 23.0699 8.76566 23.1481 8.92817 23.1775L8.99672 23.1902C10.33 23.4302 11.6955 23.4302 13.0288 23.1902L13.0973 23.1775C13.2598 23.1481 13.4095 23.0699 13.5265 22.9533C13.6435 22.8368 13.7223 22.6874 13.7524 22.525L14.151 20.3693C15.0702 20.024 15.9182 19.534 16.6799 18.9093L18.7416 19.6431C18.8971 19.6981 19.0657 19.7045 19.2248 19.6614C19.384 19.6183 19.5263 19.5278 19.6329 19.4019L19.6786 19.3486C20.5622 18.305 21.2401 17.1295 21.6997 15.8523L21.7225 15.7863C21.8317 15.4715 21.7377 15.1185 21.4813 14.8976ZM11.0127 16.223C8.54731 16.223 6.54907 14.2248 6.54907 11.7593C6.54907 9.29392 8.54731 7.29568 11.0127 7.29568C13.4782 7.29568 15.4764 9.29392 15.4764 11.7593C15.4764 14.2248 13.4782 16.223 11.0127 16.223Z" fill="#FB7C00"/>
</svg>
